<?xml version="1.0" encoding="UTF-8"?>
<!DOCTYPE svg PUBLIC "-//W3C//DTD SVG 1.1//EN" "http://www.w3.org/Graphics/SVG/1.1/DTD/svg11.dtd">
<svg width="400px" height="400px" xmlns="http://www.w3.org/2000/svg" xmlns:xlink="http://www.w3.org/1999/xlink">
<g><g><line stroke-width="1px" stroke="black" fill="yellow" x1="0" y1="200" x2="400" y2="200"/></g><g><line stroke-width="1px" stroke="black" fill="yellow" x1="200" y1="400" x2="200" y2="0"/></g><polyline stroke-width="1px" stroke="blue" fill="none" points="0,93.5558 10.6053,80.928 14.007,77.7632 16.6083,76.1324 18.8094,75.4479 21.0105,75.5142 23.0115,76.3039 25.2126,78.0446 27.6138,81.0479 30.4152,86.0593 33.4167,93.2335 37.0185,104.193 41.4207,120.634 47.6238,147.816 57.2286,191.771 62.031,210.891 65.6328,222.734 68.8344,231.054 71.4357,236.144 73.8369,239.473 75.8379,241.25 77.8389,242.153 79.8399,242.23 81.8409,241.552 84.2421,239.863 87.4437,236.423 93.2466,228.287 98.049,221.728 101.051,218.641 103.452,217.091 105.453,216.578 107.254,216.807 109.055,217.75 111.056,219.691 113.457,223.317 116.058,228.87 119.06,237.345 122.661,250.23 127.264,270.276 140.47,335.971 144.672,353.896 147.874,364.907 150.475,371.73 152.676,375.816 154.477,377.917 155.878,378.746 157.279,378.85 158.679,378.22 160.28,376.594 162.281,373.207 164.682,367.195 167.484,357.614 170.885,342.575 175.088,319.633 180.89,282.35 192.296,204.492 197.499,173.19 201.701,151.826 205.303,136.779 208.504,126.043 211.506,118.185 214.307,112.654 216.908,108.919 219.51,106.351 222.111,104.742 225.113,103.788 229.315,103.435 235.718,103.244 239.32,102.484 242.721,100.994 246.323,98.4895 250.525,94.4422 262.131,80.7185 265.533,77.6114 268.134,76.0427 270.335,75.4216 272.336,75.5139 274.337,76.3029 276.538,78.0428 278.939,81.0452 281.741,86.0557 284.742,93.2288 288.344,104.187 292.746,120.627 298.949,147.808 308.754,192.621 313.357,210.885 316.958,222.729 320.16,231.051 322.761,236.141 325.163,239.471 327.164,241.249 329.165,242.152 331.166,242.231 333.167,241.553 335.568,239.864 338.769,236.426 344.572,228.289 349.375,221.73 352.376,218.643 354.777,217.092 356.778,216.578 358.579,216.806 360.38,217.749 362.381,219.689 364.782,223.313 367.384,228.866 370.385,237.339 373.987,250.224 378.589,270.267 391.796,335.963 395.998,353.889 399.2,364.902 400,367.219"/></g></svg>
