<?xml version="1.0" encoding="UTF-8"?>
<!DOCTYPE svg PUBLIC "-//W3C//DTD SVG 1.1//EN" "http://www.w3.org/Graphics/SVG/1.1/DTD/svg11.dtd">
<svg width="400px" height="400px" xmlns="http://www.w3.org/2000/svg" xmlns:xlink="http://www.w3.org/1999/xlink">
<g><g><line stroke-width="1px" stroke="black" fill="yellow" x1="0" y1="200" x2="400" y2="200"/></g><g><line stroke-width="1px" stroke="black" fill="yellow" x1="200" y1="400" x2="200" y2="0"/></g><polyline stroke-width="1px" stroke="blue" fill="none" points="0,93.5558 0.2001,93.33 0.4002,93.1026 0.6003,92.8734 0.8004,92.6427 1.0005,92.4104 1.2006,92.1767 1.4007,91.9415 1.6008,91.705 1.8009,91.4672 2.001,91.2282 2.2011,90.988 2.4012,90.7468 2.6013,90.5046 2.8014,90.2615 3.0015,90.0175 3.2016,89.7727 3.4017,89.5273 3.6018,89.2812 3.8019,89.0345 4.002,88.7874 4.2021,88.5399 4.4022,88.2921 4.6023,88.0441 4.8024,87.7959 5.0025,87.5477 5.2026,87.2995 5.4027,87.0514 5.6028,86.8034 5.8029,86.5558 6.003,86.3085 6.2031,86.0617 6.4032,85.8154 6.6033,85.5697 6.8034,85.3248 7.0035,85.0806 7.2036,84.8374 7.4037,84.5951 7.6038,84.3539 7.8039,84.1139 8.004,83.8751 8.2041,83.6377 8.4042,83.4017 8.6043,83.1673 8.8044,82.9345 9.0045,82.7034 9.2046,82.4741 9.4047,82.2467 9.6048,82.0214 9.8049,81.7981 10.005,81.5771 10.2051,81.3583 10.4052,81.1419 10.6053,80.928 10.8054,80.7167 11.0055,80.508 11.2056,80.3021 11.4057,80.0991 11.6058,79.899 11.8059,79.702 12.006,79.5081 12.2061,79.3175 12.4062,79.1302 12.6063,78.9463 12.8064,78.766 13.0065,78.5892 13.2066,78.4162 13.4067,78.247 13.6068,78.0817 13.8069,77.9204 14.007,77.7632 14.2071,77.6101 14.4072,77.4613 14.6073,77.3169 14.8074,77.177 15.0075,77.0415 15.2076,76.9108 15.4077,76.7847 15.6078,76.6634 15.8079,76.5471 16.008,76.4357 16.2081,76.3294 16.4082,76.2283 16.6083,76.1324 16.8084,76.0419 17.0085,75.9568 17.2086,75.8771 17.4087,75.8031 17.6088,75.7347 17.8089,75.6721 18.009,75.6153 18.2091,75.5644 18.4092,75.5195 18.6093,75.4806 18.8094,75.4479 19.0095,75.4214 19.2096,75.4012 19.4097,75.3874 19.6098,75.38 19.8099,75.3791 20.01,75.3847 20.2101,75.3971 20.4102,75.4161 20.6103,75.4419 20.8104,75.4746 21.0105,75.5142 21.2106,75.5608 21.4107,75.6144 21.6108,75.6751 21.8109,75.743 22.011,75.8181 22.2111,75.9005 22.4112,75.9902 22.6113,76.0873 22.8114,76.1919 23.0115,76.3039 23.2116,76.4235 23.4117,76.5507 23.6118,76.6855 23.8119,76.8281 24.012,76.9783 24.2121,77.1363 24.4122,77.3022 24.6123,77.4759 24.8124,77.6575 25.0125,77.8471 25.2126,78.0446 25.4127,78.2501 25.6128,78.4637 25.8129,78.6854 26.013,78.9151 26.2131,79.153 26.4132,79.399 26.6133,79.6533 26.8134,79.9157 27.0135,80.1863 27.2136,80.4652 27.4137,80.7524 27.6138,81.0479 27.8139,81.3516 28.014,81.6637 28.2141,81.9841 28.4142,82.3128 28.6143,82.6499 28.8144,82.9953 29.0145,83.349 29.2146,83.7112 29.4147,84.0816 29.6148,84.4605 29.8149,84.8477 30.015,85.2432 30.2151,85.6471 30.4152,86.0593 30.6153,86.4799 30.8154,86.9088 31.0155,87.346 31.2156,87.7915 31.4157,88.2453 31.6158,88.7073 31.8159,89.1776 32.016,89.6561 32.2161,90.1428 32.4162,90.6376 32.6163,91.1406 32.8164,91.6517 33.0165,92.171 33.2166,92.6982 33.4167,93.2335 33.6168,93.7768 33.8169,94.328 34.017,94.8872 34.2171,95.4542 34.4172,96.0291 34.6173,96.6117 34.8174,97.2021 35.0175,97.8002 35.2176,98.4059 35.4177,99.0192 35.6178,99.6401 35.8179,100.268 36.018,100.904 36.2181,101.547 36.4182,102.198 36.6183,102.856 36.8184,103.52 37.0185,104.193 37.2186,104.872 37.4187,105.558 37.6188,106.251 37.8189,106.951 38.019,107.657 38.2191,108.371 38.4192,109.091 38.6193,109.818 38.8194,110.551 39.0195,111.29 39.2196,112.036 39.4197,112.788 39.6198,113.546 39.8199,114.311 40.02,115.081 40.2201,115.857 40.4202,116.639 40.6203,117.427 40.8204,118.221 41.0205,119.02 41.2206,119.824 41.4207,120.634 41.6208,121.449 41.8209,122.269 42.021,123.094 42.2211,123.924 42.4212,124.759 42.6213,125.599 42.8214,126.444 43.0215,127.293 43.2216,128.146 43.4217,129.004 43.6218,129.866 43.8219,130.732 44.022,131.602 44.2221,132.476 44.4222,133.354 44.6223,134.235 44.8224,135.12 45.0225,136.008 45.2226,136.9 45.4227,137.795 45.6228,138.693 45.8229,139.594 46.023,140.498 46.2231,141.404 46.4232,142.313 46.6233,143.225 46.8234,144.139 47.0235,145.055 47.2236,145.973 47.4237,146.894 47.6238,147.816 47.8239,148.74 48.024,149.665 48.2241,150.592 48.4242,151.521 48.6243,152.45 48.8244,153.381 49.0245,154.313 49.2246,155.246 49.4247,156.179 49.6248,157.113 49.8249,158.047 50.025,158.982 50.2251,159.917 50.4252,160.852 50.6253,161.787 50.8254,162.722 51.0255,163.656 51.2256,164.59 51.4257,165.524 51.6258,166.457 51.8259,167.389 52.026,168.32 52.2261,169.249 52.4262,170.178 52.6263,171.106 52.8264,172.031 53.0265,172.956 53.2266,173.878 53.4267,174.799 53.6268,175.718 53.8269,176.634 54.027,177.549 54.2271,178.461 54.4272,179.37 54.6273,180.277 54.8274,181.181 55.0275,182.082 55.2276,182.981 55.4277,183.876 55.6278,184.768 55.8279,185.656 56.028,186.541 56.2281,187.423 56.4282,188.3 56.6283,189.174 56.8284,190.044 57.0285,190.909 57.2286,191.771 57.4287,192.628 57.6288,193.481 57.8289,194.329 58.029,195.172 58.2291,196.011 58.4292,196.845 58.6293,197.674 58.8294,198.497 59.0295,199.316 59.2296,200.129 59.4297,200.936 59.6298,201.738 59.8299,202.535 60.03,203.325 60.2301,204.11 60.4302,204.889 60.6303,205.661 60.8304,206.428 61.0305,207.188 61.2306,207.942 61.4307,208.689 61.6308,209.43 61.8309,210.164 62.031,210.891 62.2311,211.612 62.4312,212.325 62.6313,213.032 62.8314,213.731 63.0315,214.424 63.2316,215.109 63.4317,215.786 63.6318,216.457 63.8319,217.119 64.032,217.775 64.2321,218.422 64.4322,219.062 64.6323,219.694 64.8324,220.318 65.0325,220.934 65.2326,221.542 65.4327,222.142 65.6328,222.734 65.8329,223.318 66.033,223.893 66.2331,224.461 66.4332,225.019 66.6333,225.57 66.8334,226.112 67.0335,226.645 67.2336,227.17 67.4337,227.686 67.6338,228.194 67.8339,228.692 68.034,229.183 68.2341,229.664 68.4342,230.136 68.6343,230.6 68.8344,231.054 69.0345,231.5 69.2346,231.937 69.4347,232.365 69.6348,232.784 69.8349,233.193 70.035,233.594 70.2351,233.986 70.4352,234.368 70.6353,234.742 70.8354,235.106 71.0355,235.461 71.2356,235.807 71.4357,236.144 71.6358,236.472 71.8359,236.79 72.036,237.1 72.2361,237.4 72.4362,237.691 72.6363,237.973 72.8364,238.246 73.0365,238.509 73.2366,238.764 73.4367,239.009 73.6368,239.245 73.8369,239.473 74.037,239.691 74.2371,239.9 74.4372,240.1 74.6373,240.291 74.8374,240.473 75.0375,240.646 75.2376,240.81 75.4377,240.966 75.6378,241.112 75.8379,241.25 76.038,241.379 76.2381,241.499 76.4382,241.611 76.6383,241.714 76.8384,241.808 77.0385,241.894 77.2386,241.971 77.4387,242.04 77.6388,242.101 77.8389,242.153 78.039,242.197 78.2391,242.232 78.4392,242.26 78.6393,242.279 78.8394,242.291 79.0395,242.294 79.2396,242.29 79.4397,242.278 79.6398,242.258 79.8399,242.23 80.04,242.195 80.2401,242.153 80.4402,242.103 80.6403,242.045 80.8404,241.981 81.0405,241.909 81.2406,241.83 81.4407,241.744 81.6408,241.652 81.8409,241.552 82.041,241.446 82.2411,241.333 82.4412,241.214 82.6413,241.088 82.8414,240.956 83.0415,240.817 83.2416,240.673 83.4417,240.522 83.6418,240.366 83.8419,240.204 84.042,240.036 84.2421,239.863 84.4422,239.684 84.6423,239.499 84.8424,239.31 85.0425,239.115 85.2426,238.916 85.4427,238.711 85.6428,238.502 85.8429,238.288 86.043,238.069 86.2431,237.846 86.4432,237.619 86.6433,237.388 86.8434,237.152 87.0435,236.913 87.2436,236.67 87.4437,236.423 87.6438,236.173 87.8439,235.92 88.044,235.663 88.2441,235.403 88.4442,235.14 88.6443,234.874 88.8444,234.605 89.0445,234.334 89.2446,234.06 89.4447,233.784 89.6448,233.506 89.8449,233.226 90.045,232.944 90.2451,232.66 90.4452,232.375 90.6453,232.088 90.8454,231.799 91.0455,231.51 91.2456,231.219 91.4457,230.928 91.6458,230.636 91.8459,230.343 92.046,230.049 92.2461,229.756 92.4462,229.462 92.6463,229.168 92.8464,228.874 93.0465,228.58 93.2466,228.287 93.4467,227.994 93.6468,227.701 93.8469,227.41 94.047,227.12 94.2471,226.83 94.4472,226.542 94.6473,226.255 94.8474,225.97 95.0475,225.687 95.2476,225.405 95.4477,225.125 95.6478,224.847 95.8479,224.572 96.048,224.298 96.2481,224.028 96.4482,223.76 96.6483,223.495 96.8484,223.232 97.0485,222.973 97.2486,222.717 97.4487,222.464 97.6488,222.215 97.8489,221.97 98.049,221.728 98.2491,221.49 98.4492,221.256 98.6493,221.026 98.8494,220.801 99.0495,220.58 99.2496,220.363 99.4497,220.151 99.6498,219.945 99.8499,219.742 100.05,219.546 100.25,219.354 100.45,219.167 100.65,218.986 100.85,218.811 101.051,218.641 101.251,218.477 101.451,218.319 101.651,218.167 101.851,218.022 102.051,217.882 102.251,217.749 102.451,217.622 102.651,217.502 102.851,217.389 103.052,217.283 103.252,217.183 103.452,217.091 103.652,217.006 103.852,216.928 104.052,216.857 104.252,216.794 104.452,216.739 104.652,216.691 104.852,216.651 105.053,216.618 105.253,216.594 105.453,216.578 105.653,216.57 105.853,216.57 106.053,216.578 106.253,216.595 106.453,216.62 106.653,216.653 106.853,216.696 107.054,216.747 107.254,216.807 107.454,216.875 107.654,216.953 107.854,217.039 108.054,217.135 108.254,217.239 108.454,217.353 108.654,217.476 108.854,217.608 109.055,217.75 109.255,217.901 109.455,218.062 109.655,218.232 109.855,218.411 110.055,218.6 110.255,218.799 110.455,219.007 110.655,219.226 110.855,219.454 111.056,219.691 111.256,219.939 111.456,220.196 111.656,220.463 111.856,220.74 112.056,221.028 112.256,221.325 112.456,221.632 112.656,221.949 112.856,222.275 113.057,222.612 113.257,222.959 113.457,223.317 113.657,223.684 113.857,224.061 114.057,224.448 114.257,224.845 114.457,225.252 114.657,225.669 114.857,226.097 115.058,226.534 115.258,226.981 115.458,227.439 115.658,227.906 115.858,228.383 116.058,228.87 116.258,229.367 116.458,229.874 116.658,230.391 116.858,230.917 117.059,231.453 117.259,231.999 117.459,232.555 117.659,233.12 117.859,233.696 118.059,234.28 118.259,234.874 118.459,235.478 118.659,236.091 118.859,236.713 119.06,237.345 119.26,237.986 119.46,238.636 119.66,239.295 119.86,239.964 120.06,240.641 120.26,241.327 120.46,242.022 120.66,242.726 120.86,243.439 121.061,244.16 121.261,244.89 121.461,245.628 121.661,246.375 121.861,247.13 122.061,247.893 122.261,248.664 122.461,249.443 122.661,250.23 122.861,251.026 123.062,251.828 123.262,252.639 123.462,253.457 123.662,254.282 123.862,255.114 124.062,255.954 124.262,256.801 124.462,257.655 124.662,258.516 124.862,259.383 125.063,260.258 125.263,261.138 125.463,262.025 125.663,262.919 125.863,263.818 126.063,264.724 126.263,265.635 126.463,266.552 126.663,267.475 126.863,268.403 127.064,269.337 127.264,270.276 127.464,271.219 127.664,272.168 127.864,273.122 128.064,274.08 128.264,275.043 128.464,276.01 128.664,276.982 128.864,277.957 129.065,278.937 129.265,279.92 129.465,280.907 129.665,281.897 129.865,282.891 130.065,283.888 130.265,284.888 130.465,285.89 130.665,286.896 130.865,287.904 131.066,288.914 131.266,289.927 131.466,290.941 131.666,291.958 131.866,292.976 132.066,293.996 132.266,295.017 132.466,296.039 132.666,297.063 132.866,298.087 133.067,299.112 133.267,300.138 133.467,301.164 133.667,302.19 133.867,303.216 134.067,304.242 134.267,305.268 134.467,306.294 134.667,307.318 134.867,308.342 135.068,309.365 135.268,310.387 135.468,311.407 135.668,312.426 135.868,313.444 136.068,314.459 136.268,315.472 136.468,316.483 136.668,317.492 136.868,318.498 137.069,319.502 137.269,320.502 137.469,321.499 137.669,322.494 137.869,323.484 138.069,324.471 138.269,325.455 138.469,326.434 138.669,327.409 138.869,328.38 139.07,329.346 139.27,330.308 139.47,331.265 139.67,332.217 139.87,333.164 140.07,334.105 140.27,335.041 140.47,335.971 140.67,336.895 140.87,337.813 141.071,338.725 141.271,339.631 141.471,340.53 141.671,341.423 141.871,342.308 142.071,343.187 142.271,344.058 142.471,344.922 142.671,345.779 142.871,346.628 143.072,347.469 143.272,348.302 143.472,349.127 143.672,349.943 143.872,350.751 144.072,351.551 144.272,352.341 144.472,353.123 144.672,353.896 144.872,354.659 145.073,355.413 145.273,356.158 145.473,356.893 145.673,357.618 145.873,358.333 146.073,359.038 146.273,359.733 146.473,360.418 146.673,361.091 146.873,361.755 147.074,362.407 147.274,363.049 147.474,363.68 147.674,364.299 147.874,364.907 148.074,365.504 148.274,366.089 148.474,366.662 148.674,367.224 148.874,367.774 149.075,368.312 149.275,368.837 149.475,369.351 149.675,369.852 149.875,370.34 150.075,370.816 150.275,371.28 150.475,371.73 150.675,372.168 150.875,372.593 151.076,373.004 151.276,373.403 151.476,373.788 151.676,374.16 151.876,374.518 152.076,374.863 152.276,375.194 152.476,375.512 152.676,375.816 152.876,376.105 153.077,376.381 153.277,376.643 153.477,376.891 153.677,377.125 153.877,377.345 154.077,377.55 154.277,377.741 154.477,377.917 154.677,378.08 154.877,378.227 155.078,378.36 155.278,378.479 155.478,378.582 155.678,378.672 155.878,378.746 156.078,378.805 156.278,378.85 156.478,378.88 156.678,378.895 156.878,378.895 157.079,378.88 157.279,378.85 157.479,378.805 157.679,378.745 157.879,378.67 158.079,378.58 158.279,378.475 158.479,378.355 158.679,378.22 158.879,378.069 159.08,377.904 159.28,377.723 159.48,377.528 159.68,377.317 159.88,377.091 160.08,376.85 160.28,376.594 160.48,376.323 160.68,376.036 160.88,375.735 161.081,375.419 161.281,375.088 161.481,374.741 161.681,374.38 161.881,374.004 162.081,373.613 162.281,373.207 162.481,372.787 162.681,372.351 162.881,371.901 163.082,371.436 163.282,370.957 163.482,370.463 163.682,369.954 163.882,369.431 164.082,368.894 164.282,368.342 164.482,367.776 164.682,367.195 164.882,366.601 165.083,365.992 165.283,365.369 165.483,364.733 165.683,364.082 165.883,363.417 166.083,362.739 166.283,362.047 166.483,361.342 166.683,360.623 166.883,359.89 167.084,359.145 167.284,358.386 167.484,357.614 167.684,356.828 167.884,356.03 168.084,355.219 168.284,354.395 168.484,353.559 168.684,352.71 168.884,351.849 169.085,350.975 169.285,350.089 169.485,349.191 169.685,348.281 169.885,347.359 170.085,346.425 170.285,345.48 170.485,344.523 170.685,343.555 170.885,342.575 171.086,341.584 171.286,340.582 171.486,339.57 171.686,338.546 171.886,337.512 172.086,336.467 172.286,335.413 172.486,334.347 172.686,333.272 172.886,332.187 173.087,331.092 173.287,329.987 173.487,328.873 173.687,327.749 173.887,326.616 174.087,325.474 174.287,324.323 174.487,323.163 174.687,321.995 174.887,320.818 175.088,319.633 175.288,318.439 175.488,317.238 175.688,316.029 175.888,314.812 176.088,313.587 176.288,312.355 176.488,311.116 176.688,309.869 176.888,308.616 177.089,307.356 177.289,306.089 177.489,304.816 177.689,303.537 177.889,302.252 178.089,300.96 178.289,299.663 178.489,298.36 178.689,297.052 178.889,295.739 179.09,294.42 179.29,293.096 179.49,291.768 179.69,290.435 179.89,289.098 180.09,287.756 180.29,286.41 180.49,285.061 180.69,283.707 180.89,282.35 181.091,280.99 181.291,279.626 181.491,278.26 181.691,276.89 181.891,275.518 182.091,274.143 182.291,272.765 182.491,271.386 182.691,270.004 182.891,268.621 183.092,267.236 183.292,265.849 183.492,264.461 183.692,263.072 183.892,261.681 184.092,260.29 184.292,258.898 184.492,257.506 184.692,256.113 184.892,254.72 185.093,253.327 185.293,251.934 185.493,250.541 185.693,249.149 185.893,247.758 186.093,246.367 186.293,244.977 186.493,243.589 186.693,242.201 186.893,240.815 187.094,239.431 187.294,238.048 187.494,236.667 187.694,235.289 187.894,233.912 188.094,232.538 188.294,231.167 188.494,229.798 188.694,228.432 188.894,227.069 189.095,225.709 189.295,224.352 189.495,222.999 189.695,221.649 189.895,220.303 190.095,218.961 190.295,217.623 190.495,216.289 190.695,214.959 190.895,213.634 191.096,212.313 191.296,210.997 191.496,209.686 191.696,208.379 191.896,207.078 192.096,205.782 192.296,204.492 192.496,203.206 192.696,201.927 192.896,200.653 193.097,199.385 193.297,198.123 193.497,196.867 193.697,195.617 193.897,194.373 194.097,193.136 194.297,191.906 194.497,190.682 194.697,189.465 194.897,188.254 195.098,187.051 195.298,185.855 195.498,184.666 195.698,183.484 195.898,182.309 196.098,181.142 196.298,179.983 196.498,178.831 196.698,177.687 196.898,176.551 197.099,175.423 197.299,174.302 197.499,173.19 197.699,172.086 197.899,170.99 198.099,169.903 198.299,168.824 198.499,167.753 198.699,166.691 198.899,165.637 199.1,164.593 199.3,163.557 199.5,162.529 199.7,161.511 199.9,160.501 200.1,159.501 200.3,158.509 200.5,157.527 200.7,156.554 200.9,155.59 201.101,154.635 201.301,153.689 201.501,152.753 201.701,151.826 201.901,150.909 202.101,150.001 202.301,149.102 202.501,148.213 202.701,147.334 202.901,146.464 203.102,145.604 203.302,144.753 203.502,143.912 203.702,143.081 203.902,142.259 204.102,141.447 204.302,140.645 204.502,139.852 204.702,139.069 204.902,138.296 205.103,137.533 205.303,136.779 205.503,136.035 205.703,135.301 205.903,134.577 206.103,133.862 206.303,133.157 206.503,132.462 206.703,131.776 206.903,131.101 207.104,130.435 207.304,129.778 207.504,129.132 207.704,128.495 207.904,127.867 208.104,127.249 208.304,126.641 208.504,126.043 208.704,125.453 208.904,124.874 209.105,124.304 209.305,123.743 209.505,123.191 209.705,122.649 209.905,122.117 210.105,121.593 210.305,121.079 210.505,120.574 210.705,120.078 210.905,119.591 211.106,119.114 211.306,118.645 211.506,118.185 211.706,117.734 211.906,117.292 212.106,116.859 212.306,116.434 212.506,116.018 212.706,115.611 212.906,115.212 213.107,114.822 213.307,114.44 213.507,114.066 213.707,113.701 213.907,113.344 214.107,112.995 214.307,112.654 214.507,112.321 214.707,111.996 214.907,111.679 215.108,111.369 215.308,111.067 215.508,110.773 215.708,110.487 215.908,110.207 216.108,109.935 216.308,109.671 216.508,109.413 216.708,109.163 216.908,108.919 217.109,108.683 217.309,108.453 217.509,108.23 217.709,108.014 217.909,107.804 218.109,107.601 218.309,107.404 218.509,107.213 218.709,107.029 218.909,106.85 219.11,106.678 219.31,106.511 219.51,106.351 219.71,106.196 219.91,106.046 220.11,105.902 220.31,105.764 220.51,105.63 220.71,105.502 220.91,105.379 221.111,105.261 221.311,105.148 221.511,105.04 221.711,104.936 221.911,104.837 222.111,104.742 222.311,104.652 222.511,104.566 222.711,104.484 222.911,104.406 223.112,104.332 223.312,104.262 223.512,104.196 223.712,104.133 223.912,104.074 224.112,104.019 224.312,103.966 224.512,103.917 224.712,103.871 224.912,103.828 225.113,103.788 225.313,103.751 225.513,103.716 225.713,103.684 225.913,103.655 226.113,103.627 226.313,103.603 226.513,103.58 226.713,103.559 226.913,103.541 227.114,103.524 227.314,103.509 227.514,103.496 227.714,103.484 227.914,103.474 228.114,103.465 228.314,103.457 228.514,103.451 228.714,103.445 228.914,103.441 229.115,103.438 229.315,103.435 229.515,103.433 229.715,103.432 229.915,103.431 230.115,103.43 230.315,103.43 230.515,103.43 230.715,103.431 230.915,103.431 231.116,103.431 231.316,103.431 231.516,103.431 231.716,103.431 231.916,103.43 232.116,103.429 232.316,103.428 232.516,103.425 232.716,103.423 232.916,103.419 233.117,103.414 233.317,103.409 233.517,103.402 233.717,103.395 233.917,103.386 234.117,103.376 234.317,103.365 234.517,103.352 234.717,103.338 234.917,103.322 235.118,103.305 235.318,103.287 235.518,103.266 235.718,103.244 235.918,103.22 236.118,103.194 236.318,103.167 236.518,103.137 236.718,103.105 236.918,103.071 237.119,103.035 237.319,102.997 237.519,102.956 237.719,102.914 237.919,102.869 238.119,102.821 238.319,102.771 238.519,102.719 238.719,102.664 238.919,102.607 239.12,102.547 239.32,102.484 239.52,102.419 239.72,102.351 239.92,102.28 240.12,102.207 240.32,102.131 240.52,102.052 240.72,101.97 240.92,101.886 241.121,101.798 241.321,101.708 241.521,101.615 241.721,101.518 241.921,101.419 242.121,101.317 242.321,101.212 242.521,101.104 242.721,100.994 242.921,100.88 243.122,100.763 243.322,100.643 243.522,100.52 243.722,100.394 243.922,100.265 244.122,100.134 244.322,99.9989 244.522,99.8612 244.722,99.7205 244.922,99.5768 245.123,99.4302 245.323,99.2806 245.523,99.1282 245.723,98.9728 245.923,98.8145 246.123,98.6534 246.323,98.4895 246.523,98.3227 246.723,98.1531 246.923,97.9808 247.124,97.8057 247.324,97.6278 247.524,97.4473 247.724,97.2642 247.924,97.0784 248.124,96.89 248.324,96.6991 248.524,96.5057 248.724,96.3097 248.924,96.1114 249.125,95.9107 249.325,95.7076 249.525,95.5021 249.725,95.2945 249.925,95.0846 250.125,94.8726 250.325,94.6584 250.525,94.4422 250.725,94.2239 250.925,94.0038 251.126,93.7817 251.326,93.5577 251.526,93.332 251.726,93.1046 251.926,92.8754 252.126,92.6447 252.326,92.4125 252.526,92.1787 252.726,91.9436 252.926,91.7071 253.127,91.4693 253.327,91.2303 253.527,90.9901 253.727,90.7489 253.927,90.5067 254.127,90.2636 254.327,90.0196 254.527,89.7749 254.727,89.5294 254.927,89.2833 255.128,89.0367 255.328,88.7896 255.528,88.5421 255.728,88.2943 255.928,88.0463 256.128,87.7981 256.328,87.5499 256.528,87.3016 256.728,87.0535 256.928,86.8056 257.129,86.558 257.329,86.3107 257.529,86.0639 257.729,85.8176 257.929,85.5719 258.129,85.3269 258.329,85.0828 258.529,84.8395 258.729,84.5972 258.929,84.356 259.13,84.116 259.33,83.8772 259.53,83.6398 259.73,83.4038 259.93,83.1693 260.13,82.9365 260.33,82.7054 260.53,82.4761 260.73,82.2487 260.93,82.0233 261.131,81.8001 261.331,81.579 261.531,81.3602 261.731,81.1438 261.931,80.9299 262.131,80.7185 262.331,80.5098 262.531,80.3039 262.731,80.1009 262.931,79.9008 263.132,79.7037 263.332,79.5098 263.532,79.3191 263.732,79.1318 263.932,78.9479 264.132,78.7675 264.332,78.5908 264.532,78.4177 264.732,78.2485 264.932,78.0831 265.133,77.9218 265.333,77.7645 265.533,77.6114 265.733,77.4626 265.933,77.3182 266.133,77.1782 266.333,77.0427 266.533,76.9119 266.733,76.7858 266.933,76.6645 267.134,76.5481 267.334,76.4367 267.534,76.3303 267.734,76.2292 267.934,76.1332 268.134,76.0427 268.334,75.9575 268.534,75.8778 268.734,75.8037 268.934,75.7353 269.135,75.6726 269.335,75.6157 269.535,75.5648 269.735,75.5198 269.935,75.4809 270.135,75.4482 270.335,75.4216 270.535,75.4013 270.735,75.3875 270.935,75.38 271.136,75.379 271.336,75.3847 271.536,75.3969 271.736,75.4159 271.936,75.4417 272.136,75.4743 272.336,75.5139 272.536,75.5604 272.736,75.6139 272.936,75.6746 273.137,75.7424 273.337,75.8174 273.537,75.8998 273.737,75.9894 273.937,76.0865 274.137,76.1909 274.337,76.3029 274.537,76.4224 274.737,76.5496 274.937,76.6843 275.138,76.8268 275.338,76.977 275.538,77.1349 275.738,77.3007 275.938,77.4744 276.138,77.6559 276.338,77.8454 276.538,78.0428 276.738,78.2483 276.938,78.4618 277.139,78.6834 277.339,78.9131 277.539,79.1509 277.739,79.3969 277.939,79.651 278.139,79.9134 278.339,80.1839 278.539,80.4628 278.739,80.7499 278.939,81.0452 279.14,81.3489 279.34,81.6609 279.54,81.9812 279.74,82.3099 279.94,82.6469 280.14,82.9922 280.34,83.3459 280.54,83.708 280.74,84.0784 280.94,84.4571 281.141,84.8442 281.341,85.2397 281.541,85.6435 281.741,86.0557 281.941,86.4762 282.141,86.905 282.341,87.3421 282.541,87.7876 282.741,88.2413 282.941,88.7032 283.142,89.1734 283.342,89.6518 283.542,90.1385 283.742,90.6333 283.942,91.1362 284.142,91.6472 284.342,92.1664 284.542,92.6936 284.742,93.2288 284.942,93.772 285.143,94.3232 285.343,94.8823 285.543,95.4492 285.743,96.024 285.943,96.6066 286.143,97.1969 286.343,97.7949 286.543,98.4006 286.743,99.0138 286.943,99.6346 287.144,100.263 287.344,100.899 287.544,101.542 287.744,102.192 287.944,102.85 288.144,103.515 288.344,104.187 288.544,104.866 288.744,105.552 288.944,106.245 289.145,106.945 289.345,107.651 289.545,108.365 289.745,109.085 289.945,109.811 290.145,110.544 290.345,111.284 290.545,112.03 290.745,112.782 290.945,113.54 291.146,114.304 291.346,115.074 291.546,115.851 291.746,116.633 291.946,117.42 292.146,118.214 292.346,119.013 292.546,119.817 292.746,120.627 292.946,121.442 293.147,122.262 293.347,123.087 293.547,123.917 293.747,124.752 293.947,125.592 294.147,126.436 294.347,127.285 294.547,128.139 294.747,128.996 294.947,129.858 295.148,130.724 295.348,131.594 295.548,132.468 295.748,133.346 295.948,134.227 296.148,135.112 296.348,136 296.548,136.892 296.748,137.787 296.948,138.685 297.149,139.586 297.349,140.49 297.549,141.396 297.749,142.305 297.949,143.217 298.149,144.131 298.349,145.047 298.549,145.965 298.749,146.886 298.949,147.808 299.15,148.732 299.35,149.657 299.55,150.584 299.75,151.513 299.95,152.442 300.15,153.373 300.35,154.305 300.55,155.237 300.75,156.171 300.95,157.105 301.151,158.039 301.351,158.974 301.551,159.909 301.751,160.844 301.951,161.779 302.151,162.714 302.351,163.648 302.551,164.582 302.751,165.516 302.951,166.448 303.152,167.38 303.352,168.311 303.552,169.241 303.752,170.17 303.952,171.097 304.152,172.023 304.352,172.948 304.552,173.87 304.752,174.791 304.952,175.71 305.153,176.626 305.353,177.541 305.553,178.453 305.753,179.362 305.953,180.269 306.153,181.173 306.353,182.075 306.553,182.973 306.753,183.868 306.953,184.76 307.154,185.648 307.354,186.533 307.554,187.415 307.754,188.293 307.954,189.166 308.154,190.036 308.354,190.902 308.554,191.763 308.754,192.621 308.954,193.473 309.155,194.322 309.355,195.165 309.555,196.004 309.755,196.838 309.955,197.666 310.155,198.49 310.355,199.309 310.555,200.122 310.755,200.929 310.955,201.731 311.156,202.528 311.356,203.318 311.556,204.103 311.756,204.882 311.956,205.654 312.156,206.421 312.356,207.181 312.556,207.935 312.756,208.682 312.956,209.423 313.157,210.157 313.357,210.885 313.557,211.605 313.757,212.319 313.957,213.026 314.157,213.725 314.357,214.418 314.557,215.103 314.757,215.78 314.957,216.451 315.158,217.114 315.358,217.769 315.558,218.416 315.758,219.056 315.958,219.688 316.158,220.312 316.358,220.929 316.558,221.537 316.758,222.137 316.958,222.729 317.159,223.313 317.359,223.888 317.559,224.456 317.759,225.015 317.959,225.565 318.159,226.107 318.359,226.641 318.559,227.165 318.759,227.682 318.959,228.189 319.16,228.688 319.36,229.178 319.56,229.66 319.76,230.132 319.96,230.596 320.16,231.051 320.36,231.496 320.56,231.933 320.76,232.361 320.96,232.78 321.161,233.19 321.361,233.591 321.561,233.982 321.761,234.365 321.961,234.738 322.161,235.103 322.361,235.458 322.561,235.804 322.761,236.141 322.961,236.469 323.162,236.787 323.362,237.097 323.562,237.397 323.762,237.688 323.962,237.97 324.162,238.243 324.362,238.507 324.562,238.761 324.762,239.007 324.962,239.243 325.163,239.471 325.363,239.689 325.563,239.898 325.763,240.098 325.963,240.289 326.163,240.471 326.363,240.645 326.563,240.809 326.763,240.964 326.963,241.111 327.164,241.249 327.364,241.378 327.564,241.498 327.764,241.61 327.964,241.713 328.164,241.807 328.364,241.893 328.564,241.97 328.764,242.039 328.964,242.1 329.165,242.152 329.365,242.196 329.565,242.232 329.765,242.26 329.965,242.279 330.165,242.291 330.365,242.294 330.565,242.29 330.765,242.278 330.965,242.258 331.166,242.231 331.366,242.196 331.566,242.153 331.766,242.103 331.966,242.046 332.166,241.981 332.366,241.91 332.566,241.831 332.766,241.745 332.966,241.652 333.167,241.553 333.367,241.447 333.567,241.334 333.767,241.215 333.967,241.089 334.167,240.957 334.367,240.819 334.567,240.674 334.767,240.524 334.967,240.367 335.168,240.205 335.368,240.037 335.568,239.864 335.768,239.685 335.968,239.501 336.168,239.312 336.368,239.117 336.568,238.917 336.768,238.713 336.968,238.504 337.169,238.29 337.369,238.071 337.569,237.848 337.769,237.621 337.969,237.39 338.169,237.155 338.369,236.915 338.569,236.672 338.769,236.426 338.969,236.175 339.17,235.922 339.37,235.665 339.57,235.405 339.77,235.142 339.97,234.876 340.17,234.608 340.37,234.336 340.57,234.063 340.77,233.787 340.97,233.509 341.171,233.229 341.371,232.946 341.571,232.663 341.771,232.377 341.971,232.09 342.171,231.802 342.371,231.512 342.571,231.222 342.771,230.93 342.971,230.638 343.172,230.345 343.372,230.052 343.572,229.758 343.772,229.464 343.972,229.17 344.172,228.876 344.372,228.582 344.572,228.289 344.772,227.996 344.972,227.704 345.173,227.413 345.373,227.122 345.573,226.833 345.773,226.545 345.973,226.258 346.173,225.973 346.373,225.689 346.573,225.407 346.773,225.127 346.973,224.85 347.174,224.574 347.374,224.301 347.574,224.03 347.774,223.762 347.974,223.497 348.174,223.235 348.374,222.975 348.574,222.719 348.774,222.467 348.974,222.217 349.175,221.972 349.375,221.73 349.575,221.492 349.775,221.258 349.975,221.028 350.175,220.803 350.375,220.582 350.575,220.365 350.775,220.153 350.975,219.946 351.176,219.744 351.376,219.547 351.576,219.355 351.776,219.169 351.976,218.988 352.176,218.812 352.376,218.643 352.576,218.479 352.776,218.321 352.977,218.169 353.177,218.023 353.377,217.883 353.577,217.75 353.777,217.623 353.977,217.503 354.177,217.39 354.377,217.284 354.577,217.184 354.777,217.092 354.977,217.007 355.178,216.929 355.378,216.858 355.578,216.795 355.778,216.739 355.978,216.691 356.178,216.651 356.378,216.619 356.578,216.594 356.778,216.578 356.978,216.57 357.179,216.57 357.379,216.578 357.579,216.594 357.779,216.62 357.979,216.653 358.179,216.695 358.379,216.746 358.579,216.806 358.779,216.875 358.979,216.952 359.18,217.038 359.38,217.134 359.58,217.238 359.78,217.352 359.98,217.475 360.18,217.607 360.38,217.749 360.58,217.9 360.78,218.06 360.98,218.23 361.181,218.41 361.381,218.599 361.581,218.797 361.781,219.006 361.981,219.224 362.181,219.452 362.381,219.689 362.581,219.937 362.781,220.194 362.981,220.461 363.182,220.738 363.382,221.025 363.582,221.322 363.782,221.629 363.982,221.946 364.182,222.273 364.382,222.609 364.582,222.956 364.782,223.313 364.982,223.68 365.183,224.057 365.383,224.444 365.583,224.841 365.783,225.249 365.983,225.666 366.183,226.093 366.383,226.53 366.583,226.977 366.783,227.435 366.983,227.902 367.184,228.379 367.384,228.866 367.584,229.363 367.784,229.869 367.984,230.386 368.184,230.912 368.384,231.449 368.584,231.995 368.784,232.55 368.984,233.116 369.185,233.69 369.385,234.275 369.585,234.869 369.785,235.472 369.985,236.085 370.185,236.708 370.385,237.339 370.585,237.98 370.785,238.63 370.986,239.289 371.186,239.958 371.386,240.635 371.586,241.321 371.786,242.016 371.986,242.72 372.186,243.433 372.386,244.154 372.586,244.883 372.786,245.622 372.986,246.368 373.187,247.123 373.387,247.886 373.587,248.657 373.787,249.436 373.987,250.224 374.187,251.019 374.387,251.821 374.587,252.632 374.787,253.449 374.987,254.275 375.188,255.107 375.388,255.947 375.588,256.794 375.788,257.648 375.988,258.508 376.188,259.376 376.388,260.25 376.588,261.131 376.788,262.018 376.988,262.911 377.189,263.81 377.389,264.716 377.589,265.627 377.789,266.544 377.989,267.467 378.189,268.395 378.389,269.329 378.589,270.267 378.789,271.211 378.99,272.16 379.19,273.114 379.39,274.072 379.59,275.035 379.79,276.002 379.99,276.973 380.19,277.949 380.39,278.928 380.59,279.912 380.79,280.898 380.991,281.889 381.191,282.882 381.391,283.879 381.591,284.879 381.791,285.882 381.991,286.887 382.191,287.895 382.391,288.905 382.591,289.918 382.791,290.932 382.991,291.949 383.192,292.967 383.392,293.987 383.592,295.008 383.792,296.03 383.992,297.054 384.192,298.078 384.392,299.103 384.592,300.129 384.792,301.155 384.992,302.181 385.193,303.207 385.393,304.233 385.593,305.259 385.793,306.285 385.993,307.309 386.193,308.333 386.393,309.356 386.593,310.378 386.793,311.399 386.993,312.417 387.194,313.435 387.394,314.45 387.594,315.463 387.794,316.474 387.994,317.483 388.194,318.489 388.394,319.493 388.594,320.493 388.794,321.491 388.995,322.485 389.195,323.476 389.395,324.463 389.595,325.446 389.795,326.425 389.995,327.401 390.195,328.372 390.395,329.338 390.595,330.3 390.795,331.257 390.995,332.209 391.196,333.155 391.396,334.097 391.596,335.033 391.796,335.963 391.996,336.887 392.196,337.805 392.396,338.718 392.596,339.623 392.796,340.522 392.996,341.415 393.197,342.301 393.397,343.179 393.597,344.051 393.797,344.915 393.997,345.771 394.197,346.62 394.397,347.461 394.597,348.295 394.797,349.119 394.997,349.936 395.198,350.744 395.398,351.544 395.598,352.335 395.798,353.116 395.998,353.889 396.198,354.653 396.398,355.407 396.598,356.152 396.798,356.887 396.999,357.612 397.199,358.327 397.399,359.032 397.599,359.727 397.799,360.412 397.999,361.086 398.199,361.749 398.399,362.402 398.599,363.043 398.799,363.674 399,364.294 399.2,364.902 399.4,365.499 399.6,366.084 399.8,366.657 400,367.219"/></g></svg>
