<?xml version="1.0" ?><!DOCTYPE svg  PUBLIC '-//W3C//DTD SVG 1.1//EN'  'http://www.w3.org/Graphics/SVG/1.1/DTD/svg11.dtd'><svg height="244.0" width="450.0" xmlns="http://www.w3.org/2000/svg"><line style="stroke:blue" x1="275.75" x2="123.5" y1="22.0" y2="62.0"/><line style="stroke:blue" x1="275.75" x2="370.0" y1="22.0" y2="62.0"/><line style="stroke:blue" x1="275.75" x2="399.0" y1="22.0" y2="62.0"/><line style="stroke:blue" x1="275.75" x2="428.0" y1="22.0" y2="62.0"/><line style="stroke:blue" x1="123.5" x2="22.0" y1="62.0" y2="102.0"/><line style="stroke:blue" x1="123.5" x2="51.0" y1="62.0" y2="102.0"/><line style="stroke:blue" x1="123.5" x2="80.0" y1="62.0" y2="102.0"/><line style="stroke:blue" x1="123.5" x2="225.0" y1="62.0" y2="102.0"/><circle cx="22.0" cy="102.0" r="12.0" style="stroke:black;fill:#eee"/><circle cx="51.0" cy="102.0" r="12.0" style="stroke:black;fill:#eee"/><circle cx="80.0" cy="102.0" r="12.0" style="stroke:black;fill:#eee"/><line style="stroke:blue" x1="225.0" x2="109.0" y1="102.0" y2="142.0"/><line style="stroke:blue" x1="225.0" x2="138.0" y1="102.0" y2="142.0"/><line style="stroke:blue" x1="225.0" x2="167.0" y1="102.0" y2="142.0"/><line style="stroke:blue" x1="225.0" x2="246.75" y1="102.0" y2="142.0"/><line style="stroke:blue" x1="225.0" x2="341.0" y1="102.0" y2="142.0"/><circle cx="109.0" cy="142.0" r="12.0" style="stroke:black;fill:#eee"/><circle cx="138.0" cy="142.0" r="12.0" style="stroke:black;fill:#eee"/><circle cx="167.0" cy="142.0" r="12.0" style="stroke:black;fill:#eee"/><line style="stroke:blue" x1="246.75" x2="196.0" y1="142.0" y2="182.0"/><line style="stroke:blue" x1="246.75" x2="225.0" y1="142.0" y2="182.0"/><line style="stroke:blue" x1="246.75" x2="254.0" y1="142.0" y2="182.0"/><line style="stroke:blue" x1="246.75" x2="297.5" y1="142.0" y2="182.0"/><circle cx="196.0" cy="182.0" r="12.0" style="stroke:black;fill:#eee"/><circle cx="225.0" cy="182.0" r="12.0" style="stroke:black;fill:#eee"/><circle cx="254.0" cy="182.0" r="12.0" style="stroke:black;fill:#eee"/><line style="stroke:blue" x1="297.5" x2="283.0" y1="182.0" y2="222.0"/><line style="stroke:blue" x1="297.5" x2="312.0" y1="182.0" y2="222.0"/><circle cx="283.0" cy="222.0" r="12.0" style="stroke:black;fill:#eee"/><circle cx="312.0" cy="222.0" r="12.0" style="stroke:black;fill:#eee"/><circle cx="297.5" cy="182.0" r="12.0" style="stroke:black;fill:#eee"/><circle cx="246.75" cy="142.0" r="12.0" style="stroke:black;fill:#eee"/><circle cx="341.0" cy="142.0" r="12.0" style="stroke:black;fill:#eee"/><circle cx="225.0" cy="102.0" r="12.0" style="stroke:black;fill:#eee"/><circle cx="123.5" cy="62.0" r="12.0" style="stroke:black;fill:#eee"/><circle cx="370.0" cy="62.0" r="12.0" style="stroke:black;fill:#eee"/><circle cx="399.0" cy="62.0" r="12.0" style="stroke:black;fill:#eee"/><circle cx="428.0" cy="62.0" r="12.0" style="stroke:black;fill:#eee"/><circle cx="275.75" cy="22.0" r="12.0" style="stroke:black;fill:#eee"/></svg>