<?xml version="1.0" ?><!DOCTYPE svg  PUBLIC '-//W3C//DTD SVG 1.1//EN'  'http://www.w3.org/Graphics/SVG/1.1/DTD/svg11.dtd'><svg height="244.0" width="218.0" xmlns="http://www.w3.org/2000/svg"><line style="stroke:blue" x1="109.0" x2="65.5" y1="22.0" y2="62.0"/><line style="stroke:blue" x1="109.0" x2="94.5" y1="22.0" y2="62.0"/><line style="stroke:blue" x1="109.0" x2="123.5" y1="22.0" y2="62.0"/><line style="stroke:blue" x1="109.0" x2="152.5" y1="22.0" y2="62.0"/><line style="stroke:blue" x1="65.5" x2="22.0" y1="62.0" y2="102.0"/><line style="stroke:blue" x1="65.5" x2="51.0" y1="62.0" y2="102.0"/><line style="stroke:blue" x1="65.5" x2="80.0" y1="62.0" y2="102.0"/><line style="stroke:blue" x1="65.5" x2="109.0" y1="62.0" y2="102.0"/><circle cx="22.0" cy="102.0" r="12.0" style="stroke:black;fill:#eee"/><circle cx="51.0" cy="102.0" r="12.0" style="stroke:black;fill:#eee"/><circle cx="80.0" cy="102.0" r="12.0" style="stroke:black;fill:#eee"/><line style="stroke:blue" x1="109.0" x2="51.0" y1="102.0" y2="142.0"/><line style="stroke:blue" x1="109.0" x2="80.0" y1="102.0" y2="142.0"/><line style="stroke:blue" x1="109.0" x2="109.0" y1="102.0" y2="142.0"/><line style="stroke:blue" x1="109.0" x2="138.0" y1="102.0" y2="142.0"/><line style="stroke:blue" x1="109.0" x2="167.0" y1="102.0" y2="142.0"/><circle cx="51.0" cy="142.0" r="12.0" style="stroke:black;fill:#eee"/><circle cx="80.0" cy="142.0" r="12.0" style="stroke:black;fill:#eee"/><circle cx="109.0" cy="142.0" r="12.0" style="stroke:black;fill:#eee"/><line style="stroke:blue" x1="138.0" x2="94.5" y1="142.0" y2="182.0"/><line style="stroke:blue" x1="138.0" x2="123.5" y1="142.0" y2="182.0"/><line style="stroke:blue" x1="138.0" x2="152.5" y1="142.0" y2="182.0"/><line style="stroke:blue" x1="138.0" x2="181.5" y1="142.0" y2="182.0"/><circle cx="94.5" cy="182.0" r="12.0" style="stroke:black;fill:#eee"/><circle cx="123.5" cy="182.0" r="12.0" style="stroke:black;fill:#eee"/><circle cx="152.5" cy="182.0" r="12.0" style="stroke:black;fill:#eee"/><line style="stroke:blue" x1="181.5" x2="167.0" y1="182.0" y2="222.0"/><line style="stroke:blue" x1="181.5" x2="196.0" y1="182.0" y2="222.0"/><circle cx="167.0" cy="222.0" r="12.0" style="stroke:black;fill:#eee"/><circle cx="196.0" cy="222.0" r="12.0" style="stroke:black;fill:#eee"/><circle cx="181.5" cy="182.0" r="12.0" style="stroke:black;fill:#eee"/><circle cx="138.0" cy="142.0" r="12.0" style="stroke:black;fill:#eee"/><circle cx="167.0" cy="142.0" r="12.0" style="stroke:black;fill:#eee"/><circle cx="109.0" cy="102.0" r="12.0" style="stroke:black;fill:#eee"/><circle cx="65.5" cy="62.0" r="12.0" style="stroke:black;fill:#eee"/><circle cx="94.5" cy="62.0" r="12.0" style="stroke:black;fill:#eee"/><circle cx="123.5" cy="62.0" r="12.0" style="stroke:black;fill:#eee"/><circle cx="152.5" cy="62.0" r="12.0" style="stroke:black;fill:#eee"/><circle cx="109.0" cy="22.0" r="12.0" style="stroke:black;fill:#eee"/></svg>