<svg version="1.1" viewBox="0.0 0.0 704.6404199475065 660.4803149606299" fill="none" stroke="none" stroke-linecap="square" stroke-miterlimit="10" xmlns:xlink="http://www.w3.org/1999/xlink" xmlns="http://www.w3.org/2000/svg"><clipPath id="p.0"><path d="m0 0l704.64044 0l0 660.4803l-704.64044 0l0 -660.4803z" clip-rule="nonzero"/></clipPath><g clip-path="url(#p.0)"><path fill="#000000" fill-opacity="0.0" d="m0 0l704.64044 0l0 660.4803l-704.64044 0z" fill-rule="evenodd"/><path fill="#cfe2f3" d="m36.029953 258.4924l24.0 0l0 24.062988l-24.0 0z" fill-rule="evenodd"/><path stroke="#000000" stroke-width="1.0" stroke-linejoin="round" stroke-linecap="butt" d="m36.029953 258.4924l24.0 0l0 24.062988l-24.0 0z" fill-rule="evenodd"/><path fill="#cfe2f3" d="m60.030724 258.4924l24.0 0l0 24.062988l-24.0 0z" fill-rule="evenodd"/><path stroke="#000000" stroke-width="1.0" stroke-linejoin="round" stroke-linecap="butt" d="m60.030724 258.4924l24.0 0l0 24.062988l-24.0 0z" fill-rule="evenodd"/><path fill="#cfe2f3" d="m83.57598 258.4924l24.0 0l0 24.062988l-24.0 0z" fill-rule="evenodd"/><path stroke="#000000" stroke-width="1.0" stroke-linejoin="round" stroke-linecap="butt" d="m83.57598 258.4924l24.0 0l0 24.062988l-24.0 0z" fill-rule="evenodd"/><path fill="#cfe2f3" d="m107.57675 258.4924l24.0 0l0 24.062988l-24.0 0z" fill-rule="evenodd"/><path stroke="#000000" stroke-width="1.0" stroke-linejoin="round" stroke-linecap="butt" d="m107.57675 258.4924l24.0 0l0 24.062988l-24.0 0z" fill-rule="evenodd"/><path fill="#cfe2f3" d="m131.57751 258.4924l24.0 0l0 24.062988l-24.0 0z" fill-rule="evenodd"/><path stroke="#000000" stroke-width="1.0" stroke-linejoin="round" stroke-linecap="butt" d="m131.57751 258.4924l24.0 0l0 24.062988l-24.0 0z" fill-rule="evenodd"/><path fill="#cfe2f3" d="m155.5783 258.4924l24.0 0l0 24.062988l-24.0 0z" fill-rule="evenodd"/><path stroke="#000000" stroke-width="1.0" stroke-linejoin="round" stroke-linecap="butt" d="m155.5783 258.4924l24.0 0l0 24.062988l-24.0 0z" fill-rule="evenodd"/><path fill="#cfe2f3" d="m36.029953 282.54208l24.0 0l0 24.062988l-24.0 0z" fill-rule="evenodd"/><path stroke="#000000" stroke-width="1.0" stroke-linejoin="round" stroke-linecap="butt" d="m36.029953 282.54208l24.0 0l0 24.062988l-24.0 0z" fill-rule="evenodd"/><path fill="#cfe2f3" d="m60.030724 282.54208l24.0 0l0 24.062988l-24.0 0z" fill-rule="evenodd"/><path stroke="#000000" stroke-width="1.0" stroke-linejoin="round" stroke-linecap="butt" d="m60.030724 282.54208l24.0 0l0 24.062988l-24.0 0z" fill-rule="evenodd"/><path fill="#cfe2f3" d="m83.57598 282.54208l24.0 0l0 24.062988l-24.0 0z" fill-rule="evenodd"/><path stroke="#000000" stroke-width="1.0" stroke-linejoin="round" stroke-linecap="butt" d="m83.57598 282.54208l24.0 0l0 24.062988l-24.0 0z" fill-rule="evenodd"/><path fill="#cfe2f3" d="m107.57675 282.54208l24.0 0l0 24.062988l-24.0 0z" fill-rule="evenodd"/><path stroke="#000000" stroke-width="1.0" stroke-linejoin="round" stroke-linecap="butt" d="m107.57675 282.54208l24.0 0l0 24.062988l-24.0 0z" fill-rule="evenodd"/><path fill="#cfe2f3" d="m131.57751 282.54208l24.0 0l0 24.062988l-24.0 0z" fill-rule="evenodd"/><path stroke="#000000" stroke-width="1.0" stroke-linejoin="round" stroke-linecap="butt" d="m131.57751 282.54208l24.0 0l0 24.062988l-24.0 0z" fill-rule="evenodd"/><path fill="#cfe2f3" d="m155.5783 282.54208l24.0 0l0 24.062988l-24.0 0z" fill-rule="evenodd"/><path stroke="#000000" stroke-width="1.0" stroke-linejoin="round" stroke-linecap="butt" d="m155.5783 282.54208l24.0 0l0 24.062988l-24.0 0z" fill-rule="evenodd"/><path fill="#cfe2f3" d="m36.029953 306.29276l24.0 0l0 24.062988l-24.0 0z" fill-rule="evenodd"/><path stroke="#000000" stroke-width="1.0" stroke-linejoin="round" stroke-linecap="butt" d="m36.029953 306.29276l24.0 0l0 24.062988l-24.0 0z" fill-rule="evenodd"/><path fill="#cfe2f3" d="m60.030724 306.29276l24.0 0l0 24.062988l-24.0 0z" fill-rule="evenodd"/><path stroke="#000000" stroke-width="1.0" stroke-linejoin="round" stroke-linecap="butt" d="m60.030724 306.29276l24.0 0l0 24.062988l-24.0 0z" fill-rule="evenodd"/><path fill="#cfe2f3" d="m83.57598 306.29276l24.0 0l0 24.062988l-24.0 0z" fill-rule="evenodd"/><path stroke="#000000" stroke-width="1.0" stroke-linejoin="round" stroke-linecap="butt" d="m83.57598 306.29276l24.0 0l0 24.062988l-24.0 0z" fill-rule="evenodd"/><path fill="#cfe2f3" d="m107.57675 306.29276l24.0 0l0 24.062988l-24.0 0z" fill-rule="evenodd"/><path stroke="#000000" stroke-width="1.0" stroke-linejoin="round" stroke-linecap="butt" d="m107.57675 306.29276l24.0 0l0 24.062988l-24.0 0z" fill-rule="evenodd"/><path fill="#cfe2f3" d="m131.57751 306.29276l24.0 0l0 24.062988l-24.0 0z" fill-rule="evenodd"/><path stroke="#000000" stroke-width="1.0" stroke-linejoin="round" stroke-linecap="butt" d="m131.57751 306.29276l24.0 0l0 24.062988l-24.0 0z" fill-rule="evenodd"/><path fill="#cfe2f3" d="m155.5783 306.29276l24.0 0l0 24.062988l-24.0 0z" fill-rule="evenodd"/><path stroke="#000000" stroke-width="1.0" stroke-linejoin="round" stroke-linecap="butt" d="m155.5783 306.29276l24.0 0l0 24.062988l-24.0 0z" fill-rule="evenodd"/><path fill="#cfe2f3" d="m107.57675 330.34247l24.0 0l0 24.062988l-24.0 0z" fill-rule="evenodd"/><path stroke="#000000" stroke-width="1.0" stroke-linejoin="round" stroke-linecap="butt" d="m107.57675 330.34247l24.0 0l0 24.062988l-24.0 0z" fill-rule="evenodd"/><path fill="#cfe2f3" d="m131.57751 330.34247l24.0 0l0 24.062988l-24.0 0z" fill-rule="evenodd"/><path stroke="#000000" stroke-width="1.0" stroke-linejoin="round" stroke-linecap="butt" d="m131.57751 330.34247l24.0 0l0 24.062988l-24.0 0z" fill-rule="evenodd"/><path fill="#cfe2f3" d="m155.5783 330.34247l24.0 0l0 24.062988l-24.0 0z" fill-rule="evenodd"/><path stroke="#000000" stroke-width="1.0" stroke-linejoin="round" stroke-linecap="butt" d="m155.5783 330.34247l24.0 0l0 24.062988l-24.0 0z" fill-rule="evenodd"/><path fill="#cfe2f3" d="m107.57675 354.0931l24.0 0l0 24.063019l-24.0 0z" fill-rule="evenodd"/><path stroke="#000000" stroke-width="1.0" stroke-linejoin="round" stroke-linecap="butt" d="m107.57675 354.0931l24.0 0l0 24.063019l-24.0 0z" fill-rule="evenodd"/><path fill="#cfe2f3" d="m131.57751 354.0931l24.0 0l0 24.063019l-24.0 0z" fill-rule="evenodd"/><path stroke="#000000" stroke-width="1.0" stroke-linejoin="round" stroke-linecap="butt" d="m131.57751 354.0931l24.0 0l0 24.063019l-24.0 0z" fill-rule="evenodd"/><path fill="#cfe2f3" d="m155.5783 354.0931l24.0 0l0 24.063019l-24.0 0z" fill-rule="evenodd"/><path stroke="#000000" stroke-width="1.0" stroke-linejoin="round" stroke-linecap="butt" d="m155.5783 354.0931l24.0 0l0 24.063019l-24.0 0z" fill-rule="evenodd"/><path fill="#cfe2f3" d="m107.57675 378.14282l24.0 0l0 24.062988l-24.0 0z" fill-rule="evenodd"/><path stroke="#000000" stroke-width="1.0" stroke-linejoin="round" stroke-linecap="butt" d="m107.57675 378.14282l24.0 0l0 24.062988l-24.0 0z" fill-rule="evenodd"/><path fill="#cfe2f3" d="m131.57751 378.14282l24.0 0l0 24.062988l-24.0 0z" fill-rule="evenodd"/><path stroke="#000000" stroke-width="1.0" stroke-linejoin="round" stroke-linecap="butt" d="m131.57751 378.14282l24.0 0l0 24.062988l-24.0 0z" fill-rule="evenodd"/><path fill="#cfe2f3" d="m155.5783 378.14282l24.0 0l0 24.062988l-24.0 0z" fill-rule="evenodd"/><path stroke="#000000" stroke-width="1.0" stroke-linejoin="round" stroke-linecap="butt" d="m155.5783 378.14282l24.0 0l0 24.062988l-24.0 0z" fill-rule="evenodd"/><path fill="#d9d9d9" d="m407.64398 292.21393l24.0 0l0 24.062988l-24.0 0z" fill-rule="evenodd"/><path stroke="#000000" stroke-width="1.0" stroke-linejoin="round" stroke-linecap="butt" d="m407.64398 292.21393l24.0 0l0 24.062988l-24.0 0z" fill-rule="evenodd"/><path fill="#d9d9d9" d="m431.64474 292.21393l24.0 0l0 24.062988l-24.0 0z" fill-rule="evenodd"/><path stroke="#000000" stroke-width="1.0" stroke-linejoin="round" stroke-linecap="butt" d="m431.64474 292.21393l24.0 0l0 24.062988l-24.0 0z" fill-rule="evenodd"/><path fill="#d9d9d9" d="m455.19 292.21393l24.0 0l0 24.062988l-24.0 0z" fill-rule="evenodd"/><path stroke="#000000" stroke-width="1.0" stroke-linejoin="round" stroke-linecap="butt" d="m455.19 292.21393l24.0 0l0 24.062988l-24.0 0z" fill-rule="evenodd"/><path fill="#d9d9d9" d="m407.64398 315.96457l24.0 0l0 24.062988l-24.0 0z" fill-rule="evenodd"/><path stroke="#000000" stroke-width="1.0" stroke-linejoin="round" stroke-linecap="butt" d="m407.64398 315.96457l24.0 0l0 24.062988l-24.0 0z" fill-rule="evenodd"/><path fill="#d9d9d9" d="m431.64474 315.96457l24.0 0l0 24.062988l-24.0 0z" fill-rule="evenodd"/><path stroke="#000000" stroke-width="1.0" stroke-linejoin="round" stroke-linecap="butt" d="m431.64474 315.96457l24.0 0l0 24.062988l-24.0 0z" fill-rule="evenodd"/><path fill="#d9d9d9" d="m455.19 315.96457l24.0 0l0 24.062988l-24.0 0z" fill-rule="evenodd"/><path stroke="#000000" stroke-width="1.0" stroke-linejoin="round" stroke-linecap="butt" d="m455.19 315.96457l24.0 0l0 24.062988l-24.0 0z" fill-rule="evenodd"/><path fill="#d9d9d9" d="m407.64398 340.01428l24.0 0l0 24.062988l-24.0 0z" fill-rule="evenodd"/><path stroke="#000000" stroke-width="1.0" stroke-linejoin="round" stroke-linecap="butt" d="m407.64398 340.01428l24.0 0l0 24.062988l-24.0 0z" fill-rule="evenodd"/><path fill="#d9d9d9" d="m431.64474 340.01428l24.0 0l0 24.062988l-24.0 0z" fill-rule="evenodd"/><path stroke="#000000" stroke-width="1.0" stroke-linejoin="round" stroke-linecap="butt" d="m431.64474 340.01428l24.0 0l0 24.062988l-24.0 0z" fill-rule="evenodd"/><path fill="#d9d9d9" d="m455.19 340.01428l24.0 0l0 24.062988l-24.0 0z" fill-rule="evenodd"/><path stroke="#000000" stroke-width="1.0" stroke-linejoin="round" stroke-linecap="butt" d="m455.19 340.01428l24.0 0l0 24.062988l-24.0 0z" fill-rule="evenodd"/><path fill="#fff2cc" d="m544.70856 258.4924l24.0 0l0 24.062988l-24.0 0z" fill-rule="evenodd"/><path stroke="#000000" stroke-width="1.0" stroke-linejoin="round" stroke-linecap="butt" d="m544.70856 258.4924l24.0 0l0 24.062988l-24.0 0z" fill-rule="evenodd"/><path fill="#fff2cc" d="m568.70935 258.4924l24.0 0l0 24.062988l-24.0 0z" fill-rule="evenodd"/><path stroke="#000000" stroke-width="1.0" stroke-linejoin="round" stroke-linecap="butt" d="m568.70935 258.4924l24.0 0l0 24.062988l-24.0 0z" fill-rule="evenodd"/><path fill="#fff2cc" d="m592.25464 258.4924l24.0 0l0 24.062988l-24.0 0z" fill-rule="evenodd"/><path stroke="#000000" stroke-width="1.0" stroke-linejoin="round" stroke-linecap="butt" d="m592.25464 258.4924l24.0 0l0 24.062988l-24.0 0z" fill-rule="evenodd"/><path fill="#fff2cc" d="m616.2554 258.4924l24.0 0l0 24.062988l-24.0 0z" fill-rule="evenodd"/><path stroke="#000000" stroke-width="1.0" stroke-linejoin="round" stroke-linecap="butt" d="m616.2554 258.4924l24.0 0l0 24.062988l-24.0 0z" fill-rule="evenodd"/><path fill="#fff2cc" d="m640.25616 258.4924l24.0 0l0 24.062988l-24.0 0z" fill-rule="evenodd"/><path stroke="#000000" stroke-width="1.0" stroke-linejoin="round" stroke-linecap="butt" d="m640.25616 258.4924l24.0 0l0 24.062988l-24.0 0z" fill-rule="evenodd"/><path fill="#fff2cc" d="m664.2569 258.4924l24.0 0l0 24.062988l-24.0 0z" fill-rule="evenodd"/><path stroke="#000000" stroke-width="1.0" stroke-linejoin="round" stroke-linecap="butt" d="m664.2569 258.4924l24.0 0l0 24.062988l-24.0 0z" fill-rule="evenodd"/><path fill="#fff2cc" d="m544.70856 282.54208l24.0 0l0 24.062988l-24.0 0z" fill-rule="evenodd"/><path stroke="#000000" stroke-width="1.0" stroke-linejoin="round" stroke-linecap="butt" d="m544.70856 282.54208l24.0 0l0 24.062988l-24.0 0z" fill-rule="evenodd"/><path fill="#fff2cc" d="m568.70935 282.54208l24.0 0l0 24.062988l-24.0 0z" fill-rule="evenodd"/><path stroke="#000000" stroke-width="1.0" stroke-linejoin="round" stroke-linecap="butt" d="m568.70935 282.54208l24.0 0l0 24.062988l-24.0 0z" fill-rule="evenodd"/><path fill="#fff2cc" d="m592.25464 282.54208l24.0 0l0 24.062988l-24.0 0z" fill-rule="evenodd"/><path stroke="#000000" stroke-width="1.0" stroke-linejoin="round" stroke-linecap="butt" d="m592.25464 282.54208l24.0 0l0 24.062988l-24.0 0z" fill-rule="evenodd"/><path fill="#fff2cc" d="m616.2554 282.54208l24.0 0l0 24.062988l-24.0 0z" fill-rule="evenodd"/><path stroke="#000000" stroke-width="1.0" stroke-linejoin="round" stroke-linecap="butt" d="m616.2554 282.54208l24.0 0l0 24.062988l-24.0 0z" fill-rule="evenodd"/><path fill="#fff2cc" d="m640.25616 282.54208l24.0 0l0 24.062988l-24.0 0z" fill-rule="evenodd"/><path stroke="#000000" stroke-width="1.0" stroke-linejoin="round" stroke-linecap="butt" d="m640.25616 282.54208l24.0 0l0 24.062988l-24.0 0z" fill-rule="evenodd"/><path fill="#fff2cc" d="m664.2569 282.54208l24.0 0l0 24.062988l-24.0 0z" fill-rule="evenodd"/><path stroke="#000000" stroke-width="1.0" stroke-linejoin="round" stroke-linecap="butt" d="m664.2569 282.54208l24.0 0l0 24.062988l-24.0 0z" fill-rule="evenodd"/><path fill="#fff2cc" d="m544.70856 306.29276l24.0 0l0 24.062988l-24.0 0z" fill-rule="evenodd"/><path stroke="#000000" stroke-width="1.0" stroke-linejoin="round" stroke-linecap="butt" d="m544.70856 306.29276l24.0 0l0 24.062988l-24.0 0z" fill-rule="evenodd"/><path fill="#fff2cc" d="m568.70935 306.29276l24.0 0l0 24.062988l-24.0 0z" fill-rule="evenodd"/><path stroke="#000000" stroke-width="1.0" stroke-linejoin="round" stroke-linecap="butt" d="m568.70935 306.29276l24.0 0l0 24.062988l-24.0 0z" fill-rule="evenodd"/><path fill="#fff2cc" d="m592.25464 306.29276l24.0 0l0 24.062988l-24.0 0z" fill-rule="evenodd"/><path stroke="#000000" stroke-width="1.0" stroke-linejoin="round" stroke-linecap="butt" d="m592.25464 306.29276l24.0 0l0 24.062988l-24.0 0z" fill-rule="evenodd"/><path fill="#fff2cc" d="m616.2554 306.29276l24.0 0l0 24.062988l-24.0 0z" fill-rule="evenodd"/><path stroke="#000000" stroke-width="1.0" stroke-linejoin="round" stroke-linecap="butt" d="m616.2554 306.29276l24.0 0l0 24.062988l-24.0 0z" fill-rule="evenodd"/><path fill="#fff2cc" d="m640.25616 306.29276l24.0 0l0 24.062988l-24.0 0z" fill-rule="evenodd"/><path stroke="#000000" stroke-width="1.0" stroke-linejoin="round" stroke-linecap="butt" d="m640.25616 306.29276l24.0 0l0 24.062988l-24.0 0z" fill-rule="evenodd"/><path fill="#fff2cc" d="m664.2569 306.29276l24.0 0l0 24.062988l-24.0 0z" fill-rule="evenodd"/><path stroke="#000000" stroke-width="1.0" stroke-linejoin="round" stroke-linecap="butt" d="m664.2569 306.29276l24.0 0l0 24.062988l-24.0 0z" fill-rule="evenodd"/><path fill="#fff2cc" d="m544.70856 330.34247l24.0 0l0 24.062988l-24.0 0z" fill-rule="evenodd"/><path stroke="#000000" stroke-width="1.0" stroke-linejoin="round" stroke-linecap="butt" d="m544.70856 330.34247l24.0 0l0 24.062988l-24.0 0z" fill-rule="evenodd"/><path fill="#fff2cc" d="m568.70935 330.34247l24.0 0l0 24.062988l-24.0 0z" fill-rule="evenodd"/><path stroke="#000000" stroke-width="1.0" stroke-linejoin="round" stroke-linecap="butt" d="m568.70935 330.34247l24.0 0l0 24.062988l-24.0 0z" fill-rule="evenodd"/><path fill="#fff2cc" d="m592.25464 330.34247l24.0 0l0 24.062988l-24.0 0z" fill-rule="evenodd"/><path stroke="#000000" stroke-width="1.0" stroke-linejoin="round" stroke-linecap="butt" d="m592.25464 330.34247l24.0 0l0 24.062988l-24.0 0z" fill-rule="evenodd"/><path fill="#fff2cc" d="m616.2554 330.34247l24.0 0l0 24.062988l-24.0 0z" fill-rule="evenodd"/><path stroke="#000000" stroke-width="1.0" stroke-linejoin="round" stroke-linecap="butt" d="m616.2554 330.34247l24.0 0l0 24.062988l-24.0 0z" fill-rule="evenodd"/><path fill="#fff2cc" d="m640.25616 330.34247l24.0 0l0 24.062988l-24.0 0z" fill-rule="evenodd"/><path stroke="#000000" stroke-width="1.0" stroke-linejoin="round" stroke-linecap="butt" d="m640.25616 330.34247l24.0 0l0 24.062988l-24.0 0z" fill-rule="evenodd"/><path fill="#fff2cc" d="m664.2569 330.34247l24.0 0l0 24.062988l-24.0 0z" fill-rule="evenodd"/><path stroke="#000000" stroke-width="1.0" stroke-linejoin="round" stroke-linecap="butt" d="m664.2569 330.34247l24.0 0l0 24.062988l-24.0 0z" fill-rule="evenodd"/><path fill="#fff2cc" d="m544.70856 354.0931l24.0 0l0 24.063019l-24.0 0z" fill-rule="evenodd"/><path stroke="#000000" stroke-width="1.0" stroke-linejoin="round" stroke-linecap="butt" d="m544.70856 354.0931l24.0 0l0 24.063019l-24.0 0z" fill-rule="evenodd"/><path fill="#ff0000" d="m568.70935 354.0931l24.0 0l0 24.063019l-24.0 0z" fill-rule="evenodd"/><path stroke="#000000" stroke-width="1.0" stroke-linejoin="round" stroke-linecap="butt" d="m568.70935 354.0931l24.0 0l0 24.063019l-24.0 0z" fill-rule="evenodd"/><path fill="#fff2cc" d="m592.25464 354.0931l24.0 0l0 24.063019l-24.0 0z" fill-rule="evenodd"/><path stroke="#000000" stroke-width="1.0" stroke-linejoin="round" stroke-linecap="butt" d="m592.25464 354.0931l24.0 0l0 24.063019l-24.0 0z" fill-rule="evenodd"/><path fill="#fff2cc" d="m616.2554 354.0931l24.0 0l0 24.063019l-24.0 0z" fill-rule="evenodd"/><path stroke="#000000" stroke-width="1.0" stroke-linejoin="round" stroke-linecap="butt" d="m616.2554 354.0931l24.0 0l0 24.063019l-24.0 0z" fill-rule="evenodd"/><path fill="#fff2cc" d="m640.25616 354.0931l24.0 0l0 24.063019l-24.0 0z" fill-rule="evenodd"/><path stroke="#000000" stroke-width="1.0" stroke-linejoin="round" stroke-linecap="butt" d="m640.25616 354.0931l24.0 0l0 24.063019l-24.0 0z" fill-rule="evenodd"/><path fill="#fff2cc" d="m664.2569 354.0931l24.0 0l0 24.063019l-24.0 0z" fill-rule="evenodd"/><path stroke="#000000" stroke-width="1.0" stroke-linejoin="round" stroke-linecap="butt" d="m664.2569 354.0931l24.0 0l0 24.063019l-24.0 0z" fill-rule="evenodd"/><path fill="#fff2cc" d="m544.70856 378.14282l24.0 0l0 24.062988l-24.0 0z" fill-rule="evenodd"/><path stroke="#000000" stroke-width="1.0" stroke-linejoin="round" stroke-linecap="butt" d="m544.70856 378.14282l24.0 0l0 24.062988l-24.0 0z" fill-rule="evenodd"/><path fill="#fff2cc" d="m568.70935 378.14282l24.0 0l0 24.062988l-24.0 0z" fill-rule="evenodd"/><path stroke="#000000" stroke-width="1.0" stroke-linejoin="round" stroke-linecap="butt" d="m568.70935 378.14282l24.0 0l0 24.062988l-24.0 0z" fill-rule="evenodd"/><path fill="#fff2cc" d="m592.25464 378.14282l24.0 0l0 24.062988l-24.0 0z" fill-rule="evenodd"/><path stroke="#000000" stroke-width="1.0" stroke-linejoin="round" stroke-linecap="butt" d="m592.25464 378.14282l24.0 0l0 24.062988l-24.0 0z" fill-rule="evenodd"/><path fill="#fff2cc" d="m616.2554 378.14282l24.0 0l0 24.062988l-24.0 0z" fill-rule="evenodd"/><path stroke="#000000" stroke-width="1.0" stroke-linejoin="round" stroke-linecap="butt" d="m616.2554 378.14282l24.0 0l0 24.062988l-24.0 0z" fill-rule="evenodd"/><path fill="#fff2cc" d="m640.25616 378.14282l24.0 0l0 24.062988l-24.0 0z" fill-rule="evenodd"/><path stroke="#000000" stroke-width="1.0" stroke-linejoin="round" stroke-linecap="butt" d="m640.25616 378.14282l24.0 0l0 24.062988l-24.0 0z" fill-rule="evenodd"/><path fill="#fff2cc" d="m664.2569 378.14282l24.0 0l0 24.062988l-24.0 0z" fill-rule="evenodd"/><path stroke="#000000" stroke-width="1.0" stroke-linejoin="round" stroke-linecap="butt" d="m664.2569 378.14282l24.0 0l0 24.062988l-24.0 0z" fill-rule="evenodd"/><path fill="#cfe2f3" d="m36.029953 330.34247l24.0 0l0 24.062988l-24.0 0z" fill-rule="evenodd"/><path stroke="#ff0000" stroke-width="1.0" stroke-linejoin="round" stroke-linecap="butt" d="m36.029953 330.34247l24.0 0l0 24.062988l-24.0 0z" fill-rule="evenodd"/><path fill="#cfe2f3" d="m60.030724 330.34247l24.0 0l0 24.062988l-24.0 0z" fill-rule="evenodd"/><path stroke="#ff0000" stroke-width="1.0" stroke-linejoin="round" stroke-linecap="butt" d="m60.030724 330.34247l24.0 0l0 24.062988l-24.0 0z" fill-rule="evenodd"/><path fill="#cfe2f3" d="m83.57598 330.34247l24.0 0l0 24.062988l-24.0 0z" fill-rule="evenodd"/><path stroke="#ff0000" stroke-width="1.0" stroke-linejoin="round" stroke-linecap="butt" d="m83.57598 330.34247l24.0 0l0 24.062988l-24.0 0z" fill-rule="evenodd"/><path fill="#cfe2f3" d="m36.029953 354.0931l24.0 0l0 24.063019l-24.0 0z" fill-rule="evenodd"/><path stroke="#ff0000" stroke-width="1.0" stroke-linejoin="round" stroke-linecap="butt" d="m36.029953 354.0931l24.0 0l0 24.063019l-24.0 0z" fill-rule="evenodd"/><path fill="#cfe2f3" d="m60.030724 354.0931l24.0 0l0 24.063019l-24.0 0z" fill-rule="evenodd"/><path stroke="#ff0000" stroke-width="1.0" stroke-linejoin="round" stroke-linecap="butt" d="m60.030724 354.0931l24.0 0l0 24.063019l-24.0 0z" fill-rule="evenodd"/><path fill="#cfe2f3" d="m83.57598 354.0931l24.0 0l0 24.063019l-24.0 0z" fill-rule="evenodd"/><path stroke="#ff0000" stroke-width="1.0" stroke-linejoin="round" stroke-linecap="butt" d="m83.57598 354.0931l24.0 0l0 24.063019l-24.0 0z" fill-rule="evenodd"/><path fill="#cfe2f3" d="m36.029953 378.14282l24.0 0l0 24.062988l-24.0 0z" fill-rule="evenodd"/><path stroke="#ff0000" stroke-width="1.0" stroke-linejoin="round" stroke-linecap="butt" d="m36.029953 378.14282l24.0 0l0 24.062988l-24.0 0z" fill-rule="evenodd"/><path fill="#cfe2f3" d="m60.030724 378.14282l24.0 0l0 24.062988l-24.0 0z" fill-rule="evenodd"/><path stroke="#ff0000" stroke-width="1.0" stroke-linejoin="round" stroke-linecap="butt" d="m60.030724 378.14282l24.0 0l0 24.062988l-24.0 0z" fill-rule="evenodd"/><path fill="#cfe2f3" d="m83.57598 378.14282l24.0 0l0 24.062988l-24.0 0z" fill-rule="evenodd"/><path stroke="#ff0000" stroke-width="1.0" stroke-linejoin="round" stroke-linecap="butt" d="m83.57598 378.14282l24.0 0l0 24.062988l-24.0 0z" fill-rule="evenodd"/><path fill="#cfe2f3" d="m245.09425 292.36343l24.000015 0l0 24.062988l-24.000015 0z" fill-rule="evenodd"/><path stroke="#ff0000" stroke-width="1.0" stroke-linejoin="round" stroke-linecap="butt" d="m245.09425 292.36343l24.000015 0l0 24.062988l-24.000015 0z" fill-rule="evenodd"/><path fill="#cfe2f3" d="m269.09503 292.36343l24.0 0l0 24.062988l-24.0 0z" fill-rule="evenodd"/><path stroke="#ff0000" stroke-width="1.0" stroke-linejoin="round" stroke-linecap="butt" d="m269.09503 292.36343l24.0 0l0 24.062988l-24.0 0z" fill-rule="evenodd"/><path fill="#cfe2f3" d="m292.6403 292.36343l24.0 0l0 24.062988l-24.0 0z" fill-rule="evenodd"/><path stroke="#ff0000" stroke-width="1.0" stroke-linejoin="round" stroke-linecap="butt" d="m292.6403 292.36343l24.0 0l0 24.062988l-24.0 0z" fill-rule="evenodd"/><path fill="#cfe2f3" d="m245.09425 316.1141l24.000015 0l0 24.062988l-24.000015 0z" fill-rule="evenodd"/><path stroke="#ff0000" stroke-width="1.0" stroke-linejoin="round" stroke-linecap="butt" d="m245.09425 316.1141l24.000015 0l0 24.062988l-24.000015 0z" fill-rule="evenodd"/><path fill="#cfe2f3" d="m269.09503 316.1141l24.0 0l0 24.062988l-24.0 0z" fill-rule="evenodd"/><path stroke="#ff0000" stroke-width="1.0" stroke-linejoin="round" stroke-linecap="butt" d="m269.09503 316.1141l24.0 0l0 24.062988l-24.0 0z" fill-rule="evenodd"/><path fill="#cfe2f3" d="m292.6403 316.1141l24.0 0l0 24.062988l-24.0 0z" fill-rule="evenodd"/><path stroke="#ff0000" stroke-width="1.0" stroke-linejoin="round" stroke-linecap="butt" d="m292.6403 316.1141l24.0 0l0 24.062988l-24.0 0z" fill-rule="evenodd"/><path fill="#cfe2f3" d="m245.09425 340.16382l24.000015 0l0 24.062988l-24.000015 0z" fill-rule="evenodd"/><path stroke="#ff0000" stroke-width="1.0" stroke-linejoin="round" stroke-linecap="butt" d="m245.09425 340.16382l24.000015 0l0 24.062988l-24.000015 0z" fill-rule="evenodd"/><path fill="#cfe2f3" d="m269.09503 340.16382l24.0 0l0 24.062988l-24.0 0z" fill-rule="evenodd"/><path stroke="#ff0000" stroke-width="1.0" stroke-linejoin="round" stroke-linecap="butt" d="m269.09503 340.16382l24.0 0l0 24.062988l-24.0 0z" fill-rule="evenodd"/><path fill="#cfe2f3" d="m292.6403 340.16382l24.0 0l0 24.062988l-24.0 0z" fill-rule="evenodd"/><path stroke="#ff0000" stroke-width="1.0" stroke-linejoin="round" stroke-linecap="butt" d="m292.6403 340.16382l24.0 0l0 24.062988l-24.0 0z" fill-rule="evenodd"/><path fill="#cfe2f3" d="m36.03257 19.1915l24.0 0l0 24.06299l-24.0 0z" fill-rule="evenodd"/><path stroke="#000000" stroke-width="1.0" stroke-linejoin="round" stroke-linecap="butt" d="m36.03257 19.1915l24.0 0l0 24.06299l-24.0 0z" fill-rule="evenodd"/><path fill="#cfe2f3" d="m60.03334 19.1915l24.0 0l0 24.06299l-24.0 0z" fill-rule="evenodd"/><path stroke="#000000" stroke-width="1.0" stroke-linejoin="round" stroke-linecap="butt" d="m60.03334 19.1915l24.0 0l0 24.06299l-24.0 0z" fill-rule="evenodd"/><path fill="#cfe2f3" d="m83.5786 19.1915l24.0 0l0 24.06299l-24.0 0z" fill-rule="evenodd"/><path stroke="#000000" stroke-width="1.0" stroke-linejoin="round" stroke-linecap="butt" d="m83.5786 19.1915l24.0 0l0 24.06299l-24.0 0z" fill-rule="evenodd"/><path fill="#cfe2f3" d="m107.57937 19.1915l24.000008 0l0 24.06299l-24.000008 0z" fill-rule="evenodd"/><path stroke="#000000" stroke-width="1.0" stroke-linejoin="round" stroke-linecap="butt" d="m107.57937 19.1915l24.000008 0l0 24.06299l-24.000008 0z" fill-rule="evenodd"/><path fill="#cfe2f3" d="m131.58014 19.1915l24.0 0l0 24.06299l-24.0 0z" fill-rule="evenodd"/><path stroke="#000000" stroke-width="1.0" stroke-linejoin="round" stroke-linecap="butt" d="m131.58014 19.1915l24.0 0l0 24.06299l-24.0 0z" fill-rule="evenodd"/><path fill="#cfe2f3" d="m155.58092 19.1915l24.0 0l0 24.06299l-24.0 0z" fill-rule="evenodd"/><path stroke="#000000" stroke-width="1.0" stroke-linejoin="round" stroke-linecap="butt" d="m155.58092 19.1915l24.0 0l0 24.06299l-24.0 0z" fill-rule="evenodd"/><path fill="#cfe2f3" d="m36.03257 43.241207l24.0 0l0 24.062992l-24.0 0z" fill-rule="evenodd"/><path stroke="#000000" stroke-width="1.0" stroke-linejoin="round" stroke-linecap="butt" d="m36.03257 43.241207l24.0 0l0 24.062992l-24.0 0z" fill-rule="evenodd"/><path fill="#cfe2f3" d="m60.03334 43.241207l24.0 0l0 24.062992l-24.0 0z" fill-rule="evenodd"/><path stroke="#000000" stroke-width="1.0" stroke-linejoin="round" stroke-linecap="butt" d="m60.03334 43.241207l24.0 0l0 24.062992l-24.0 0z" fill-rule="evenodd"/><path fill="#cfe2f3" d="m83.5786 43.241207l24.0 0l0 24.062992l-24.0 0z" fill-rule="evenodd"/><path stroke="#000000" stroke-width="1.0" stroke-linejoin="round" stroke-linecap="butt" d="m83.5786 43.241207l24.0 0l0 24.062992l-24.0 0z" fill-rule="evenodd"/><path fill="#cfe2f3" d="m107.57937 43.241207l24.000008 0l0 24.062992l-24.000008 0z" fill-rule="evenodd"/><path stroke="#000000" stroke-width="1.0" stroke-linejoin="round" stroke-linecap="butt" d="m107.57937 43.241207l24.000008 0l0 24.062992l-24.000008 0z" fill-rule="evenodd"/><path fill="#cfe2f3" d="m131.58014 43.241207l24.0 0l0 24.062992l-24.0 0z" fill-rule="evenodd"/><path stroke="#000000" stroke-width="1.0" stroke-linejoin="round" stroke-linecap="butt" d="m131.58014 43.241207l24.0 0l0 24.062992l-24.0 0z" fill-rule="evenodd"/><path fill="#cfe2f3" d="m155.58092 43.241207l24.0 0l0 24.062992l-24.0 0z" fill-rule="evenodd"/><path stroke="#000000" stroke-width="1.0" stroke-linejoin="round" stroke-linecap="butt" d="m155.58092 43.241207l24.0 0l0 24.062992l-24.0 0z" fill-rule="evenodd"/><path fill="#cfe2f3" d="m36.03257 66.99187l24.0 0l0 24.062996l-24.0 0z" fill-rule="evenodd"/><path stroke="#000000" stroke-width="1.0" stroke-linejoin="round" stroke-linecap="butt" d="m36.03257 66.99187l24.0 0l0 24.062996l-24.0 0z" fill-rule="evenodd"/><path fill="#cfe2f3" d="m60.03334 66.99187l24.0 0l0 24.062996l-24.0 0z" fill-rule="evenodd"/><path stroke="#000000" stroke-width="1.0" stroke-linejoin="round" stroke-linecap="butt" d="m60.03334 66.99187l24.0 0l0 24.062996l-24.0 0z" fill-rule="evenodd"/><path fill="#cfe2f3" d="m83.5786 66.99187l24.0 0l0 24.062996l-24.0 0z" fill-rule="evenodd"/><path stroke="#000000" stroke-width="1.0" stroke-linejoin="round" stroke-linecap="butt" d="m83.5786 66.99187l24.0 0l0 24.062996l-24.0 0z" fill-rule="evenodd"/><path fill="#cfe2f3" d="m107.57937 66.99187l24.000008 0l0 24.062996l-24.000008 0z" fill-rule="evenodd"/><path stroke="#000000" stroke-width="1.0" stroke-linejoin="round" stroke-linecap="butt" d="m107.57937 66.99187l24.000008 0l0 24.062996l-24.000008 0z" fill-rule="evenodd"/><path fill="#cfe2f3" d="m131.58014 66.99187l24.0 0l0 24.062996l-24.0 0z" fill-rule="evenodd"/><path stroke="#000000" stroke-width="1.0" stroke-linejoin="round" stroke-linecap="butt" d="m131.58014 66.99187l24.0 0l0 24.062996l-24.0 0z" fill-rule="evenodd"/><path fill="#cfe2f3" d="m155.58092 66.99187l24.0 0l0 24.062996l-24.0 0z" fill-rule="evenodd"/><path stroke="#000000" stroke-width="1.0" stroke-linejoin="round" stroke-linecap="butt" d="m155.58092 66.99187l24.0 0l0 24.062996l-24.0 0z" fill-rule="evenodd"/><path fill="#cfe2f3" d="m107.57937 91.04157l24.000008 0l0 24.062996l-24.000008 0z" fill-rule="evenodd"/><path stroke="#000000" stroke-width="1.0" stroke-linejoin="round" stroke-linecap="butt" d="m107.57937 91.04157l24.000008 0l0 24.062996l-24.000008 0z" fill-rule="evenodd"/><path fill="#cfe2f3" d="m131.58014 91.04157l24.0 0l0 24.062996l-24.0 0z" fill-rule="evenodd"/><path stroke="#000000" stroke-width="1.0" stroke-linejoin="round" stroke-linecap="butt" d="m131.58014 91.04157l24.0 0l0 24.062996l-24.0 0z" fill-rule="evenodd"/><path fill="#cfe2f3" d="m155.58092 91.04157l24.0 0l0 24.062996l-24.0 0z" fill-rule="evenodd"/><path stroke="#000000" stroke-width="1.0" stroke-linejoin="round" stroke-linecap="butt" d="m155.58092 91.04157l24.0 0l0 24.062996l-24.0 0z" fill-rule="evenodd"/><path fill="#cfe2f3" d="m107.57937 114.79224l24.000008 0l0 24.062988l-24.000008 0z" fill-rule="evenodd"/><path stroke="#000000" stroke-width="1.0" stroke-linejoin="round" stroke-linecap="butt" d="m107.57937 114.79224l24.000008 0l0 24.062988l-24.000008 0z" fill-rule="evenodd"/><path fill="#cfe2f3" d="m131.58014 114.79224l24.0 0l0 24.062988l-24.0 0z" fill-rule="evenodd"/><path stroke="#000000" stroke-width="1.0" stroke-linejoin="round" stroke-linecap="butt" d="m131.58014 114.79224l24.0 0l0 24.062988l-24.0 0z" fill-rule="evenodd"/><path fill="#cfe2f3" d="m155.58092 114.79224l24.0 0l0 24.062988l-24.0 0z" fill-rule="evenodd"/><path stroke="#000000" stroke-width="1.0" stroke-linejoin="round" stroke-linecap="butt" d="m155.58092 114.79224l24.0 0l0 24.062988l-24.0 0z" fill-rule="evenodd"/><path fill="#cfe2f3" d="m107.57937 138.84195l24.000008 0l0 24.062988l-24.000008 0z" fill-rule="evenodd"/><path stroke="#000000" stroke-width="1.0" stroke-linejoin="round" stroke-linecap="butt" d="m107.57937 138.84195l24.000008 0l0 24.062988l-24.000008 0z" fill-rule="evenodd"/><path fill="#cfe2f3" d="m131.58014 138.84195l24.0 0l0 24.062988l-24.0 0z" fill-rule="evenodd"/><path stroke="#000000" stroke-width="1.0" stroke-linejoin="round" stroke-linecap="butt" d="m131.58014 138.84195l24.0 0l0 24.062988l-24.0 0z" fill-rule="evenodd"/><path fill="#cfe2f3" d="m155.58092 138.84195l24.0 0l0 24.062988l-24.0 0z" fill-rule="evenodd"/><path stroke="#000000" stroke-width="1.0" stroke-linejoin="round" stroke-linecap="butt" d="m155.58092 138.84195l24.0 0l0 24.062988l-24.0 0z" fill-rule="evenodd"/><path fill="#cfe2f3" d="m36.03257 91.04157l24.0 0l0 24.062996l-24.0 0z" fill-rule="evenodd"/><path stroke="#000000" stroke-width="1.0" stroke-linejoin="round" stroke-linecap="butt" d="m36.03257 91.04157l24.0 0l0 24.062996l-24.0 0z" fill-rule="evenodd"/><path fill="#cfe2f3" d="m60.03334 91.04157l24.0 0l0 24.062996l-24.0 0z" fill-rule="evenodd"/><path stroke="#000000" stroke-width="1.0" stroke-linejoin="round" stroke-linecap="butt" d="m60.03334 91.04157l24.0 0l0 24.062996l-24.0 0z" fill-rule="evenodd"/><path fill="#cfe2f3" d="m83.5786 91.04157l24.0 0l0 24.062996l-24.0 0z" fill-rule="evenodd"/><path stroke="#000000" stroke-width="1.0" stroke-linejoin="round" stroke-linecap="butt" d="m83.5786 91.04157l24.0 0l0 24.062996l-24.0 0z" fill-rule="evenodd"/><path fill="#cfe2f3" d="m35.577057 90.88943l24.0 0l0 24.062996l-24.0 0z" fill-rule="evenodd"/><path stroke="#000000" stroke-width="1.0" stroke-linejoin="round" stroke-linecap="butt" d="m35.577057 90.88943l24.0 0l0 24.062996l-24.0 0z" fill-rule="evenodd"/><path fill="#cfe2f3" d="m59.577827 90.88943l24.0 0l0 24.062996l-24.0 0z" fill-rule="evenodd"/><path stroke="#000000" stroke-width="1.0" stroke-linejoin="round" stroke-linecap="butt" d="m59.577827 90.88943l24.0 0l0 24.062996l-24.0 0z" fill-rule="evenodd"/><path fill="#cfe2f3" d="m83.5786 114.79224l24.0 0l0 24.062988l-24.0 0z" fill-rule="evenodd"/><path stroke="#000000" stroke-width="1.0" stroke-linejoin="round" stroke-linecap="butt" d="m83.5786 114.79224l24.0 0l0 24.062988l-24.0 0z" fill-rule="evenodd"/><path fill="#cfe2f3" d="m35.577057 114.93913l24.0 0l0 24.062988l-24.0 0z" fill-rule="evenodd"/><path stroke="#000000" stroke-width="1.0" stroke-linejoin="round" stroke-linecap="butt" d="m35.577057 114.93913l24.0 0l0 24.062988l-24.0 0z" fill-rule="evenodd"/><path fill="#cfe2f3" d="m59.577827 114.93913l24.0 0l0 24.062988l-24.0 0z" fill-rule="evenodd"/><path stroke="#000000" stroke-width="1.0" stroke-linejoin="round" stroke-linecap="butt" d="m59.577827 114.93913l24.0 0l0 24.062988l-24.0 0z" fill-rule="evenodd"/><path fill="#cfe2f3" d="m83.5786 138.84195l24.0 0l0 24.062988l-24.0 0z" fill-rule="evenodd"/><path stroke="#000000" stroke-width="1.0" stroke-linejoin="round" stroke-linecap="butt" d="m83.5786 138.84195l24.0 0l0 24.062988l-24.0 0z" fill-rule="evenodd"/><defs><radialGradient id="p.1" gradientUnits="userSpaceOnUse" gradientTransform="matrix(4.122238323325247 0.0 0.0 4.122238323325247 0.0 0.0)" spreadMethod="pad" cx="62.36763493292044" cy="16.394215843125128" fx="62.36763493292044" fy="16.394215843125128" r="4.1222381591796875"><stop offset="0.0" stop-color="#dfe9fb"/><stop offset="1.0" stop-color="#6e9be7"/></radialGradient></defs><path fill="url(#p.1)" d="m245.09425 55.54937l24.000015 0l0 24.062988l-24.000015 0z" fill-rule="evenodd"/><path stroke="#ff0000" stroke-width="1.0" stroke-linejoin="round" stroke-linecap="butt" d="m245.09425 55.54937l24.000015 0l0 24.062988l-24.000015 0z" fill-rule="evenodd"/><path fill="#cfe2f3" d="m269.09503 55.54937l24.0 0l0 24.062988l-24.0 0z" fill-rule="evenodd"/><path stroke="#ff0000" stroke-width="1.0" stroke-linejoin="round" stroke-linecap="butt" d="m269.09503 55.54937l24.0 0l0 24.062988l-24.0 0z" fill-rule="evenodd"/><path fill="#cfe2f3" d="m292.6403 55.54937l24.0 0l0 24.062988l-24.0 0z" fill-rule="evenodd"/><path stroke="#ff0000" stroke-width="1.0" stroke-linejoin="round" stroke-linecap="butt" d="m292.6403 55.54937l24.0 0l0 24.062988l-24.0 0z" fill-rule="evenodd"/><defs><radialGradient id="p.2" gradientUnits="userSpaceOnUse" gradientTransform="matrix(4.122238323325247 0.0 0.0 4.122238323325247 0.0 0.0)" spreadMethod="pad" cx="62.36763493292044" cy="22.15580906132008" fx="62.36763493292044" fy="22.15580906132008" r="4.1222381591796875"><stop offset="0.0" stop-color="#dfe9fb"/><stop offset="1.0" stop-color="#6e9be7"/></radialGradient></defs><path fill="url(#p.2)" d="m245.09425 79.300026l24.000015 0l0 24.062996l-24.000015 0z" fill-rule="evenodd"/><path stroke="#ff0000" stroke-width="1.0" stroke-linejoin="round" stroke-linecap="butt" d="m245.09425 79.300026l24.000015 0l0 24.062996l-24.000015 0z" fill-rule="evenodd"/><path fill="#cfe2f3" d="m269.09503 79.300026l24.0 0l0 24.062996l-24.0 0z" fill-rule="evenodd"/><path stroke="#ff0000" stroke-width="1.0" stroke-linejoin="round" stroke-linecap="butt" d="m269.09503 79.300026l24.0 0l0 24.062996l-24.0 0z" fill-rule="evenodd"/><path fill="#cfe2f3" d="m292.6403 79.300026l24.0 0l0 24.062996l-24.0 0z" fill-rule="evenodd"/><path stroke="#ff0000" stroke-width="1.0" stroke-linejoin="round" stroke-linecap="butt" d="m292.6403 79.300026l24.0 0l0 24.062996l-24.0 0z" fill-rule="evenodd"/><defs><radialGradient id="p.3" gradientUnits="userSpaceOnUse" gradientTransform="matrix(4.122238323325247 0.0 0.0 4.122238323325247 0.0 0.0)" spreadMethod="pad" cx="62.36763493292044" cy="27.989947149713913" fx="62.36763493292044" fy="27.989947149713913" r="4.1222381591796875"><stop offset="0.0" stop-color="#dfe9fb"/><stop offset="1.0" stop-color="#6e9be7"/></radialGradient></defs><path fill="url(#p.3)" d="m245.09425 103.34974l24.000015 0l0 24.062988l-24.000015 0z" fill-rule="evenodd"/><path stroke="#ff0000" stroke-width="1.0" stroke-linejoin="round" stroke-linecap="butt" d="m245.09425 103.34974l24.000015 0l0 24.062988l-24.000015 0z" fill-rule="evenodd"/><path fill="#cfe2f3" d="m269.09503 103.34974l24.0 0l0 24.062988l-24.0 0z" fill-rule="evenodd"/><path stroke="#ff0000" stroke-width="1.0" stroke-linejoin="round" stroke-linecap="butt" d="m269.09503 103.34974l24.0 0l0 24.062988l-24.0 0z" fill-rule="evenodd"/><path fill="#cfe2f3" d="m292.6403 103.34974l24.0 0l0 24.062988l-24.0 0z" fill-rule="evenodd"/><path stroke="#ff0000" stroke-width="1.0" stroke-linejoin="round" stroke-linecap="butt" d="m292.6403 103.34974l24.0 0l0 24.062988l-24.0 0z" fill-rule="evenodd"/><defs><radialGradient id="p.4" gradientUnits="userSpaceOnUse" gradientTransform="matrix(4.122238323325247 0.0 0.0 4.122238323325247 0.0 0.0)" spreadMethod="pad" cx="5.718657672673573" cy="25.00351500441295" fx="5.718657672673573" fy="25.00351500441295" r="4.1222381591796875"><stop offset="0.0" stop-color="#dfe9fb"/><stop offset="1.0" stop-color="#6e9be7"/></radialGradient></defs><path fill="url(#p.4)" d="m11.573669 91.03895l24.0 0l0 24.062996l-24.0 0z" fill-rule="evenodd"/><path stroke="#ff0000" stroke-width="1.0" stroke-linejoin="round" stroke-linecap="butt" d="m11.573669 91.03895l24.0 0l0 24.062996l-24.0 0z" fill-rule="evenodd"/><path fill="#cfe2f3" d="m35.57444 91.03895l24.0 0l0 24.062996l-24.0 0z" fill-rule="evenodd"/><path stroke="#ff0000" stroke-width="1.0" stroke-linejoin="round" stroke-linecap="butt" d="m35.57444 91.03895l24.0 0l0 24.062996l-24.0 0z" fill-rule="evenodd"/><path fill="#cfe2f3" d="m59.119698 91.03895l24.0 0l0 24.062996l-24.0 0z" fill-rule="evenodd"/><path stroke="#ff0000" stroke-width="1.0" stroke-linejoin="round" stroke-linecap="butt" d="m59.119698 91.03895l24.0 0l0 24.062996l-24.0 0z" fill-rule="evenodd"/><defs><radialGradient id="p.5" gradientUnits="userSpaceOnUse" gradientTransform="matrix(4.122238323325247 0.0 0.0 4.122238323325247 0.0 0.0)" spreadMethod="pad" cx="5.718657672673573" cy="30.765108222607896" fx="5.718657672673573" fy="30.765108222607896" r="4.1222381591796875"><stop offset="0.0" stop-color="#dfe9fb"/><stop offset="1.0" stop-color="#6e9be7"/></radialGradient></defs><path fill="url(#p.5)" d="m11.573669 114.78961l24.0 0l0 24.062988l-24.0 0z" fill-rule="evenodd"/><path stroke="#ff0000" stroke-width="1.0" stroke-linejoin="round" stroke-linecap="butt" d="m11.573669 114.78961l24.0 0l0 24.062988l-24.0 0z" fill-rule="evenodd"/><path fill="#cfe2f3" d="m35.57444 114.78961l24.0 0l0 24.062988l-24.0 0z" fill-rule="evenodd"/><path stroke="#ff0000" stroke-width="1.0" stroke-linejoin="round" stroke-linecap="butt" d="m35.57444 114.78961l24.0 0l0 24.062988l-24.0 0z" fill-rule="evenodd"/><path fill="#cfe2f3" d="m59.119698 114.78961l24.0 0l0 24.062988l-24.0 0z" fill-rule="evenodd"/><path stroke="#ff0000" stroke-width="1.0" stroke-linejoin="round" stroke-linecap="butt" d="m59.119698 114.78961l24.0 0l0 24.062988l-24.0 0z" fill-rule="evenodd"/><defs><radialGradient id="p.6" gradientUnits="userSpaceOnUse" gradientTransform="matrix(4.122238323325247 0.0 0.0 4.122238323325247 0.0 0.0)" spreadMethod="pad" cx="5.718657672673573" cy="36.59924637467277" fx="5.718657672673573" fy="36.59924637467277" r="4.1222381591796875"><stop offset="0.0" stop-color="#dfe9fb"/><stop offset="1.0" stop-color="#6e9be7"/></radialGradient></defs><path fill="url(#p.6)" d="m11.573669 138.83932l24.0 0l0 24.062988l-24.0 0z" fill-rule="evenodd"/><path stroke="#ff0000" stroke-width="1.0" stroke-linejoin="round" stroke-linecap="butt" d="m11.573669 138.83932l24.0 0l0 24.062988l-24.0 0z" fill-rule="evenodd"/><path fill="#cfe2f3" d="m35.57444 138.83932l24.0 0l0 24.062988l-24.0 0z" fill-rule="evenodd"/><path stroke="#ff0000" stroke-width="1.0" stroke-linejoin="round" stroke-linecap="butt" d="m35.57444 138.83932l24.0 0l0 24.062988l-24.0 0z" fill-rule="evenodd"/><path fill="#cfe2f3" d="m59.119698 138.83932l24.0 0l0 24.062988l-24.0 0z" fill-rule="evenodd"/><path stroke="#ff0000" stroke-width="1.0" stroke-linejoin="round" stroke-linecap="butt" d="m59.119698 138.83932l24.0 0l0 24.062988l-24.0 0z" fill-rule="evenodd"/><path fill="#d9d9d9" d="m405.25647 55.39722l24.0 0l0 24.062992l-24.0 0z" fill-rule="evenodd"/><path stroke="#000000" stroke-width="1.0" stroke-linejoin="round" stroke-linecap="butt" d="m405.25647 55.39722l24.0 0l0 24.062992l-24.0 0z" fill-rule="evenodd"/><path fill="#d9d9d9" d="m429.25723 55.39722l24.0 0l0 24.062992l-24.0 0z" fill-rule="evenodd"/><path stroke="#000000" stroke-width="1.0" stroke-linejoin="round" stroke-linecap="butt" d="m429.25723 55.39722l24.0 0l0 24.062992l-24.0 0z" fill-rule="evenodd"/><path fill="#d9d9d9" d="m452.8025 55.39722l24.0 0l0 24.062992l-24.0 0z" fill-rule="evenodd"/><path stroke="#000000" stroke-width="1.0" stroke-linejoin="round" stroke-linecap="butt" d="m452.8025 55.39722l24.0 0l0 24.062992l-24.0 0z" fill-rule="evenodd"/><path fill="#d9d9d9" d="m405.25647 79.14788l24.0 0l0 24.062996l-24.0 0z" fill-rule="evenodd"/><path stroke="#000000" stroke-width="1.0" stroke-linejoin="round" stroke-linecap="butt" d="m405.25647 79.14788l24.0 0l0 24.062996l-24.0 0z" fill-rule="evenodd"/><path fill="#d9d9d9" d="m429.25723 79.14788l24.0 0l0 24.062996l-24.0 0z" fill-rule="evenodd"/><path stroke="#000000" stroke-width="1.0" stroke-linejoin="round" stroke-linecap="butt" d="m429.25723 79.14788l24.0 0l0 24.062996l-24.0 0z" fill-rule="evenodd"/><path fill="#d9d9d9" d="m452.8025 79.14788l24.0 0l0 24.062996l-24.0 0z" fill-rule="evenodd"/><path stroke="#000000" stroke-width="1.0" stroke-linejoin="round" stroke-linecap="butt" d="m452.8025 79.14788l24.0 0l0 24.062996l-24.0 0z" fill-rule="evenodd"/><path fill="#d9d9d9" d="m405.25647 103.19759l24.0 0l0 24.062988l-24.0 0z" fill-rule="evenodd"/><path stroke="#000000" stroke-width="1.0" stroke-linejoin="round" stroke-linecap="butt" d="m405.25647 103.19759l24.0 0l0 24.062988l-24.0 0z" fill-rule="evenodd"/><path fill="#d9d9d9" d="m429.25723 103.19759l24.0 0l0 24.062988l-24.0 0z" fill-rule="evenodd"/><path stroke="#000000" stroke-width="1.0" stroke-linejoin="round" stroke-linecap="butt" d="m429.25723 103.19759l24.0 0l0 24.062988l-24.0 0z" fill-rule="evenodd"/><path fill="#d9d9d9" d="m452.8025 103.19759l24.0 0l0 24.062988l-24.0 0z" fill-rule="evenodd"/><path stroke="#000000" stroke-width="1.0" stroke-linejoin="round" stroke-linecap="butt" d="m452.8025 103.19759l24.0 0l0 24.062988l-24.0 0z" fill-rule="evenodd"/><path fill="#fff2cc" d="m541.4153 19.1915l24.0 0l0 24.06299l-24.0 0z" fill-rule="evenodd"/><path stroke="#000000" stroke-width="1.0" stroke-linejoin="round" stroke-linecap="butt" d="m541.4153 19.1915l24.0 0l0 24.06299l-24.0 0z" fill-rule="evenodd"/><path fill="#fff2cc" d="m565.4161 19.1915l24.0 0l0 24.06299l-24.0 0z" fill-rule="evenodd"/><path stroke="#000000" stroke-width="1.0" stroke-linejoin="round" stroke-linecap="butt" d="m565.4161 19.1915l24.0 0l0 24.06299l-24.0 0z" fill-rule="evenodd"/><path fill="#fff2cc" d="m588.9613 19.1915l24.0 0l0 24.06299l-24.0 0z" fill-rule="evenodd"/><path stroke="#000000" stroke-width="1.0" stroke-linejoin="round" stroke-linecap="butt" d="m588.9613 19.1915l24.0 0l0 24.06299l-24.0 0z" fill-rule="evenodd"/><path fill="#fff2cc" d="m612.9621 19.1915l24.0 0l0 24.06299l-24.0 0z" fill-rule="evenodd"/><path stroke="#000000" stroke-width="1.0" stroke-linejoin="round" stroke-linecap="butt" d="m612.9621 19.1915l24.0 0l0 24.06299l-24.0 0z" fill-rule="evenodd"/><path fill="#fff2cc" d="m636.9628 19.1915l24.0 0l0 24.06299l-24.0 0z" fill-rule="evenodd"/><path stroke="#000000" stroke-width="1.0" stroke-linejoin="round" stroke-linecap="butt" d="m636.9628 19.1915l24.0 0l0 24.06299l-24.0 0z" fill-rule="evenodd"/><path fill="#fff2cc" d="m660.9636 19.1915l24.0 0l0 24.06299l-24.0 0z" fill-rule="evenodd"/><path stroke="#000000" stroke-width="1.0" stroke-linejoin="round" stroke-linecap="butt" d="m660.9636 19.1915l24.0 0l0 24.06299l-24.0 0z" fill-rule="evenodd"/><path fill="#fff2cc" d="m541.4153 43.241207l24.0 0l0 24.062992l-24.0 0z" fill-rule="evenodd"/><path stroke="#000000" stroke-width="1.0" stroke-linejoin="round" stroke-linecap="butt" d="m541.4153 43.241207l24.0 0l0 24.062992l-24.0 0z" fill-rule="evenodd"/><path fill="#fff2cc" d="m565.4161 43.241207l24.0 0l0 24.062992l-24.0 0z" fill-rule="evenodd"/><path stroke="#000000" stroke-width="1.0" stroke-linejoin="round" stroke-linecap="butt" d="m565.4161 43.241207l24.0 0l0 24.062992l-24.0 0z" fill-rule="evenodd"/><path fill="#fff2cc" d="m588.9613 43.241207l24.0 0l0 24.062992l-24.0 0z" fill-rule="evenodd"/><path stroke="#000000" stroke-width="1.0" stroke-linejoin="round" stroke-linecap="butt" d="m588.9613 43.241207l24.0 0l0 24.062992l-24.0 0z" fill-rule="evenodd"/><path fill="#fff2cc" d="m612.9621 43.241207l24.0 0l0 24.062992l-24.0 0z" fill-rule="evenodd"/><path stroke="#000000" stroke-width="1.0" stroke-linejoin="round" stroke-linecap="butt" d="m612.9621 43.241207l24.0 0l0 24.062992l-24.0 0z" fill-rule="evenodd"/><path fill="#fff2cc" d="m636.9628 43.241207l24.0 0l0 24.062992l-24.0 0z" fill-rule="evenodd"/><path stroke="#000000" stroke-width="1.0" stroke-linejoin="round" stroke-linecap="butt" d="m636.9628 43.241207l24.0 0l0 24.062992l-24.0 0z" fill-rule="evenodd"/><path fill="#fff2cc" d="m660.9636 43.241207l24.0 0l0 24.062992l-24.0 0z" fill-rule="evenodd"/><path stroke="#000000" stroke-width="1.0" stroke-linejoin="round" stroke-linecap="butt" d="m660.9636 43.241207l24.0 0l0 24.062992l-24.0 0z" fill-rule="evenodd"/><path fill="#fff2cc" d="m541.4153 66.99187l24.0 0l0 24.062996l-24.0 0z" fill-rule="evenodd"/><path stroke="#000000" stroke-width="1.0" stroke-linejoin="round" stroke-linecap="butt" d="m541.4153 66.99187l24.0 0l0 24.062996l-24.0 0z" fill-rule="evenodd"/><path fill="#fff2cc" d="m565.4161 66.99187l24.0 0l0 24.062996l-24.0 0z" fill-rule="evenodd"/><path stroke="#000000" stroke-width="1.0" stroke-linejoin="round" stroke-linecap="butt" d="m565.4161 66.99187l24.0 0l0 24.062996l-24.0 0z" fill-rule="evenodd"/><path fill="#fff2cc" d="m588.9613 66.99187l24.0 0l0 24.062996l-24.0 0z" fill-rule="evenodd"/><path stroke="#000000" stroke-width="1.0" stroke-linejoin="round" stroke-linecap="butt" d="m588.9613 66.99187l24.0 0l0 24.062996l-24.0 0z" fill-rule="evenodd"/><path fill="#fff2cc" d="m612.9621 66.99187l24.0 0l0 24.062996l-24.0 0z" fill-rule="evenodd"/><path stroke="#000000" stroke-width="1.0" stroke-linejoin="round" stroke-linecap="butt" d="m612.9621 66.99187l24.0 0l0 24.062996l-24.0 0z" fill-rule="evenodd"/><path fill="#fff2cc" d="m636.9628 66.99187l24.0 0l0 24.062996l-24.0 0z" fill-rule="evenodd"/><path stroke="#000000" stroke-width="1.0" stroke-linejoin="round" stroke-linecap="butt" d="m636.9628 66.99187l24.0 0l0 24.062996l-24.0 0z" fill-rule="evenodd"/><path fill="#fff2cc" d="m660.9636 66.99187l24.0 0l0 24.062996l-24.0 0z" fill-rule="evenodd"/><path stroke="#000000" stroke-width="1.0" stroke-linejoin="round" stroke-linecap="butt" d="m660.9636 66.99187l24.0 0l0 24.062996l-24.0 0z" fill-rule="evenodd"/><path fill="#fff2cc" d="m541.4153 91.04157l24.0 0l0 24.062996l-24.0 0z" fill-rule="evenodd"/><path stroke="#000000" stroke-width="1.0" stroke-linejoin="round" stroke-linecap="butt" d="m541.4153 91.04157l24.0 0l0 24.062996l-24.0 0z" fill-rule="evenodd"/><path fill="#fff2cc" d="m565.4161 91.04157l24.0 0l0 24.062996l-24.0 0z" fill-rule="evenodd"/><path stroke="#000000" stroke-width="1.0" stroke-linejoin="round" stroke-linecap="butt" d="m565.4161 91.04157l24.0 0l0 24.062996l-24.0 0z" fill-rule="evenodd"/><path fill="#fff2cc" d="m588.9613 91.04157l24.0 0l0 24.062996l-24.0 0z" fill-rule="evenodd"/><path stroke="#000000" stroke-width="1.0" stroke-linejoin="round" stroke-linecap="butt" d="m588.9613 91.04157l24.0 0l0 24.062996l-24.0 0z" fill-rule="evenodd"/><path fill="#fff2cc" d="m612.9621 91.04157l24.0 0l0 24.062996l-24.0 0z" fill-rule="evenodd"/><path stroke="#000000" stroke-width="1.0" stroke-linejoin="round" stroke-linecap="butt" d="m612.9621 91.04157l24.0 0l0 24.062996l-24.0 0z" fill-rule="evenodd"/><path fill="#fff2cc" d="m636.9628 91.04157l24.0 0l0 24.062996l-24.0 0z" fill-rule="evenodd"/><path stroke="#000000" stroke-width="1.0" stroke-linejoin="round" stroke-linecap="butt" d="m636.9628 91.04157l24.0 0l0 24.062996l-24.0 0z" fill-rule="evenodd"/><path fill="#fff2cc" d="m660.9636 91.04157l24.0 0l0 24.062996l-24.0 0z" fill-rule="evenodd"/><path stroke="#000000" stroke-width="1.0" stroke-linejoin="round" stroke-linecap="butt" d="m660.9636 91.04157l24.0 0l0 24.062996l-24.0 0z" fill-rule="evenodd"/><path fill="#ff0000" d="m541.4153 114.79224l24.0 0l0 24.062988l-24.0 0z" fill-rule="evenodd"/><path stroke="#000000" stroke-width="1.0" stroke-linejoin="round" stroke-linecap="butt" d="m541.4153 114.79224l24.0 0l0 24.062988l-24.0 0z" fill-rule="evenodd"/><path fill="#fff2cc" d="m565.4161 114.79224l24.0 0l0 24.062988l-24.0 0z" fill-rule="evenodd"/><path stroke="#000000" stroke-width="1.0" stroke-linejoin="round" stroke-linecap="butt" d="m565.4161 114.79224l24.0 0l0 24.062988l-24.0 0z" fill-rule="evenodd"/><path fill="#fff2cc" d="m588.9613 114.79224l24.0 0l0 24.062988l-24.0 0z" fill-rule="evenodd"/><path stroke="#000000" stroke-width="1.0" stroke-linejoin="round" stroke-linecap="butt" d="m588.9613 114.79224l24.0 0l0 24.062988l-24.0 0z" fill-rule="evenodd"/><path fill="#fff2cc" d="m612.9621 114.79224l24.0 0l0 24.062988l-24.0 0z" fill-rule="evenodd"/><path stroke="#000000" stroke-width="1.0" stroke-linejoin="round" stroke-linecap="butt" d="m612.9621 114.79224l24.0 0l0 24.062988l-24.0 0z" fill-rule="evenodd"/><path fill="#fff2cc" d="m636.9628 114.79224l24.0 0l0 24.062988l-24.0 0z" fill-rule="evenodd"/><path stroke="#000000" stroke-width="1.0" stroke-linejoin="round" stroke-linecap="butt" d="m636.9628 114.79224l24.0 0l0 24.062988l-24.0 0z" fill-rule="evenodd"/><path fill="#fff2cc" d="m660.9636 114.79224l24.0 0l0 24.062988l-24.0 0z" fill-rule="evenodd"/><path stroke="#000000" stroke-width="1.0" stroke-linejoin="round" stroke-linecap="butt" d="m660.9636 114.79224l24.0 0l0 24.062988l-24.0 0z" fill-rule="evenodd"/><path fill="#fff2cc" d="m541.4153 138.84195l24.0 0l0 24.062988l-24.0 0z" fill-rule="evenodd"/><path stroke="#000000" stroke-width="1.0" stroke-linejoin="round" stroke-linecap="butt" d="m541.4153 138.84195l24.0 0l0 24.062988l-24.0 0z" fill-rule="evenodd"/><path fill="#fff2cc" d="m565.4161 138.84195l24.0 0l0 24.062988l-24.0 0z" fill-rule="evenodd"/><path stroke="#000000" stroke-width="1.0" stroke-linejoin="round" stroke-linecap="butt" d="m565.4161 138.84195l24.0 0l0 24.062988l-24.0 0z" fill-rule="evenodd"/><path fill="#fff2cc" d="m588.9613 138.84195l24.0 0l0 24.062988l-24.0 0z" fill-rule="evenodd"/><path stroke="#000000" stroke-width="1.0" stroke-linejoin="round" stroke-linecap="butt" d="m588.9613 138.84195l24.0 0l0 24.062988l-24.0 0z" fill-rule="evenodd"/><path fill="#fff2cc" d="m612.9621 138.84195l24.0 0l0 24.062988l-24.0 0z" fill-rule="evenodd"/><path stroke="#000000" stroke-width="1.0" stroke-linejoin="round" stroke-linecap="butt" d="m612.9621 138.84195l24.0 0l0 24.062988l-24.0 0z" fill-rule="evenodd"/><path fill="#fff2cc" d="m636.9628 138.84195l24.0 0l0 24.062988l-24.0 0z" fill-rule="evenodd"/><path stroke="#000000" stroke-width="1.0" stroke-linejoin="round" stroke-linecap="butt" d="m636.9628 138.84195l24.0 0l0 24.062988l-24.0 0z" fill-rule="evenodd"/><path fill="#fff2cc" d="m660.9636 138.84195l24.0 0l0 24.062988l-24.0 0z" fill-rule="evenodd"/><path stroke="#000000" stroke-width="1.0" stroke-linejoin="round" stroke-linecap="butt" d="m660.9636 138.84195l24.0 0l0 24.062988l-24.0 0z" fill-rule="evenodd"/><path fill="#cfe2f3" d="m35.912148 503.27057l24.0 0l0 24.062988l-24.0 0z" fill-rule="evenodd"/><path stroke="#000000" stroke-width="1.0" stroke-linejoin="round" stroke-linecap="butt" d="m35.912148 503.27057l24.0 0l0 24.062988l-24.0 0z" fill-rule="evenodd"/><path fill="#cfe2f3" d="m59.912918 503.27057l24.0 0l0 24.062988l-24.0 0z" fill-rule="evenodd"/><path stroke="#000000" stroke-width="1.0" stroke-linejoin="round" stroke-linecap="butt" d="m59.912918 503.27057l24.0 0l0 24.062988l-24.0 0z" fill-rule="evenodd"/><path fill="#cfe2f3" d="m83.458176 503.27057l24.0 0l0 24.062988l-24.0 0z" fill-rule="evenodd"/><path stroke="#000000" stroke-width="1.0" stroke-linejoin="round" stroke-linecap="butt" d="m83.458176 503.27057l24.0 0l0 24.062988l-24.0 0z" fill-rule="evenodd"/><path fill="#cfe2f3" d="m107.45895 503.27057l24.000008 0l0 24.062988l-24.000008 0z" fill-rule="evenodd"/><path stroke="#000000" stroke-width="1.0" stroke-linejoin="round" stroke-linecap="butt" d="m107.45895 503.27057l24.000008 0l0 24.062988l-24.000008 0z" fill-rule="evenodd"/><path fill="#cfe2f3" d="m131.45972 503.27057l24.0 0l0 24.062988l-24.0 0z" fill-rule="evenodd"/><path stroke="#000000" stroke-width="1.0" stroke-linejoin="round" stroke-linecap="butt" d="m131.45972 503.27057l24.0 0l0 24.062988l-24.0 0z" fill-rule="evenodd"/><path fill="#cfe2f3" d="m155.4605 503.27057l24.0 0l0 24.062988l-24.0 0z" fill-rule="evenodd"/><path stroke="#000000" stroke-width="1.0" stroke-linejoin="round" stroke-linecap="butt" d="m155.4605 503.27057l24.0 0l0 24.062988l-24.0 0z" fill-rule="evenodd"/><path fill="#cfe2f3" d="m35.912148 527.32025l24.0 0l0 24.062988l-24.0 0z" fill-rule="evenodd"/><path stroke="#000000" stroke-width="1.0" stroke-linejoin="round" stroke-linecap="butt" d="m35.912148 527.32025l24.0 0l0 24.062988l-24.0 0z" fill-rule="evenodd"/><path fill="#cfe2f3" d="m59.912918 527.32025l24.0 0l0 24.062988l-24.0 0z" fill-rule="evenodd"/><path stroke="#000000" stroke-width="1.0" stroke-linejoin="round" stroke-linecap="butt" d="m59.912918 527.32025l24.0 0l0 24.062988l-24.0 0z" fill-rule="evenodd"/><path fill="#cfe2f3" d="m83.458176 527.32025l24.0 0l0 24.062988l-24.0 0z" fill-rule="evenodd"/><path stroke="#000000" stroke-width="1.0" stroke-linejoin="round" stroke-linecap="butt" d="m83.458176 527.32025l24.0 0l0 24.062988l-24.0 0z" fill-rule="evenodd"/><path fill="#cfe2f3" d="m107.45895 527.32025l24.000008 0l0 24.062988l-24.000008 0z" fill-rule="evenodd"/><path stroke="#000000" stroke-width="1.0" stroke-linejoin="round" stroke-linecap="butt" d="m107.45895 527.32025l24.000008 0l0 24.062988l-24.000008 0z" fill-rule="evenodd"/><path fill="#cfe2f3" d="m131.45972 527.32025l24.0 0l0 24.062988l-24.0 0z" fill-rule="evenodd"/><path stroke="#000000" stroke-width="1.0" stroke-linejoin="round" stroke-linecap="butt" d="m131.45972 527.32025l24.0 0l0 24.062988l-24.0 0z" fill-rule="evenodd"/><path fill="#cfe2f3" d="m155.4605 527.32025l24.0 0l0 24.062988l-24.0 0z" fill-rule="evenodd"/><path stroke="#000000" stroke-width="1.0" stroke-linejoin="round" stroke-linecap="butt" d="m155.4605 527.32025l24.0 0l0 24.062988l-24.0 0z" fill-rule="evenodd"/><path fill="#cfe2f3" d="m35.912148 551.0709l24.0 0l0 24.062988l-24.0 0z" fill-rule="evenodd"/><path stroke="#000000" stroke-width="1.0" stroke-linejoin="round" stroke-linecap="butt" d="m35.912148 551.0709l24.0 0l0 24.062988l-24.0 0z" fill-rule="evenodd"/><path fill="#cfe2f3" d="m59.912918 551.0709l24.0 0l0 24.062988l-24.0 0z" fill-rule="evenodd"/><path stroke="#000000" stroke-width="1.0" stroke-linejoin="round" stroke-linecap="butt" d="m59.912918 551.0709l24.0 0l0 24.062988l-24.0 0z" fill-rule="evenodd"/><path fill="#cfe2f3" d="m83.458176 551.0709l24.0 0l0 24.062988l-24.0 0z" fill-rule="evenodd"/><path stroke="#000000" stroke-width="1.0" stroke-linejoin="round" stroke-linecap="butt" d="m83.458176 551.0709l24.0 0l0 24.062988l-24.0 0z" fill-rule="evenodd"/><path fill="#cfe2f3" d="m107.45895 551.0709l24.000008 0l0 24.062988l-24.000008 0z" fill-rule="evenodd"/><path stroke="#000000" stroke-width="1.0" stroke-linejoin="round" stroke-linecap="butt" d="m107.45895 551.0709l24.000008 0l0 24.062988l-24.000008 0z" fill-rule="evenodd"/><path fill="#cfe2f3" d="m131.45972 551.0709l24.0 0l0 24.062988l-24.0 0z" fill-rule="evenodd"/><path stroke="#000000" stroke-width="1.0" stroke-linejoin="round" stroke-linecap="butt" d="m131.45972 551.0709l24.0 0l0 24.062988l-24.0 0z" fill-rule="evenodd"/><path fill="#cfe2f3" d="m155.4605 551.0709l24.0 0l0 24.062988l-24.0 0z" fill-rule="evenodd"/><path stroke="#000000" stroke-width="1.0" stroke-linejoin="round" stroke-linecap="butt" d="m155.4605 551.0709l24.0 0l0 24.062988l-24.0 0z" fill-rule="evenodd"/><path fill="#cfe2f3" d="m131.45972 575.12067l24.0 0l0 24.062988l-24.0 0z" fill-rule="evenodd"/><path stroke="#000000" stroke-width="1.0" stroke-linejoin="round" stroke-linecap="butt" d="m131.45972 575.12067l24.0 0l0 24.062988l-24.0 0z" fill-rule="evenodd"/><path fill="#cfe2f3" d="m155.4605 575.12067l24.0 0l0 24.062988l-24.0 0z" fill-rule="evenodd"/><path stroke="#000000" stroke-width="1.0" stroke-linejoin="round" stroke-linecap="butt" d="m155.4605 575.12067l24.0 0l0 24.062988l-24.0 0z" fill-rule="evenodd"/><path fill="#cfe2f3" d="m131.45972 598.8713l24.0 0l0 24.062988l-24.0 0z" fill-rule="evenodd"/><path stroke="#000000" stroke-width="1.0" stroke-linejoin="round" stroke-linecap="butt" d="m131.45972 598.8713l24.0 0l0 24.062988l-24.0 0z" fill-rule="evenodd"/><path fill="#cfe2f3" d="m155.4605 598.8713l24.0 0l0 24.062988l-24.0 0z" fill-rule="evenodd"/><path stroke="#000000" stroke-width="1.0" stroke-linejoin="round" stroke-linecap="butt" d="m155.4605 598.8713l24.0 0l0 24.062988l-24.0 0z" fill-rule="evenodd"/><path fill="#cfe2f3" d="m131.45972 622.921l24.0 0l0 24.062988l-24.0 0z" fill-rule="evenodd"/><path stroke="#000000" stroke-width="1.0" stroke-linejoin="round" stroke-linecap="butt" d="m131.45972 622.921l24.0 0l0 24.062988l-24.0 0z" fill-rule="evenodd"/><path fill="#cfe2f3" d="m155.4605 622.921l24.0 0l0 24.062988l-24.0 0z" fill-rule="evenodd"/><path stroke="#000000" stroke-width="1.0" stroke-linejoin="round" stroke-linecap="butt" d="m155.4605 622.921l24.0 0l0 24.062988l-24.0 0z" fill-rule="evenodd"/><path fill="#d9d9d9" d="m407.52618 536.99207l24.0 0l0 24.06305l-24.0 0z" fill-rule="evenodd"/><path stroke="#000000" stroke-width="1.0" stroke-linejoin="round" stroke-linecap="butt" d="m407.52618 536.99207l24.0 0l0 24.06305l-24.0 0z" fill-rule="evenodd"/><path fill="#d9d9d9" d="m431.52695 536.99207l24.0 0l0 24.06305l-24.0 0z" fill-rule="evenodd"/><path stroke="#000000" stroke-width="1.0" stroke-linejoin="round" stroke-linecap="butt" d="m431.52695 536.99207l24.0 0l0 24.06305l-24.0 0z" fill-rule="evenodd"/><path fill="#d9d9d9" d="m455.0722 536.99207l24.0 0l0 24.06305l-24.0 0z" fill-rule="evenodd"/><path stroke="#000000" stroke-width="1.0" stroke-linejoin="round" stroke-linecap="butt" d="m455.0722 536.99207l24.0 0l0 24.06305l-24.0 0z" fill-rule="evenodd"/><path fill="#d9d9d9" d="m407.52618 560.74274l24.0 0l0 24.062988l-24.0 0z" fill-rule="evenodd"/><path stroke="#000000" stroke-width="1.0" stroke-linejoin="round" stroke-linecap="butt" d="m407.52618 560.74274l24.0 0l0 24.062988l-24.0 0z" fill-rule="evenodd"/><path fill="#d9d9d9" d="m431.52695 560.74274l24.0 0l0 24.062988l-24.0 0z" fill-rule="evenodd"/><path stroke="#000000" stroke-width="1.0" stroke-linejoin="round" stroke-linecap="butt" d="m431.52695 560.74274l24.0 0l0 24.062988l-24.0 0z" fill-rule="evenodd"/><path fill="#d9d9d9" d="m455.0722 560.74274l24.0 0l0 24.062988l-24.0 0z" fill-rule="evenodd"/><path stroke="#000000" stroke-width="1.0" stroke-linejoin="round" stroke-linecap="butt" d="m455.0722 560.74274l24.0 0l0 24.062988l-24.0 0z" fill-rule="evenodd"/><path fill="#d9d9d9" d="m407.52618 584.7925l24.0 0l0 24.062988l-24.0 0z" fill-rule="evenodd"/><path stroke="#000000" stroke-width="1.0" stroke-linejoin="round" stroke-linecap="butt" d="m407.52618 584.7925l24.0 0l0 24.062988l-24.0 0z" fill-rule="evenodd"/><path fill="#d9d9d9" d="m431.52695 584.7925l24.0 0l0 24.062988l-24.0 0z" fill-rule="evenodd"/><path stroke="#000000" stroke-width="1.0" stroke-linejoin="round" stroke-linecap="butt" d="m431.52695 584.7925l24.0 0l0 24.062988l-24.0 0z" fill-rule="evenodd"/><path fill="#d9d9d9" d="m455.0722 584.7925l24.0 0l0 24.062988l-24.0 0z" fill-rule="evenodd"/><path stroke="#000000" stroke-width="1.0" stroke-linejoin="round" stroke-linecap="butt" d="m455.0722 584.7925l24.0 0l0 24.062988l-24.0 0z" fill-rule="evenodd"/><path fill="#fff2cc" d="m544.59076 503.27057l24.0 0l0 24.062988l-24.0 0z" fill-rule="evenodd"/><path stroke="#000000" stroke-width="1.0" stroke-linejoin="round" stroke-linecap="butt" d="m544.59076 503.27057l24.0 0l0 24.062988l-24.0 0z" fill-rule="evenodd"/><path fill="#fff2cc" d="m568.59155 503.27057l24.0 0l0 24.062988l-24.0 0z" fill-rule="evenodd"/><path stroke="#000000" stroke-width="1.0" stroke-linejoin="round" stroke-linecap="butt" d="m568.59155 503.27057l24.0 0l0 24.062988l-24.0 0z" fill-rule="evenodd"/><path fill="#fff2cc" d="m592.1368 503.27057l24.0 0l0 24.062988l-24.0 0z" fill-rule="evenodd"/><path stroke="#000000" stroke-width="1.0" stroke-linejoin="round" stroke-linecap="butt" d="m592.1368 503.27057l24.0 0l0 24.062988l-24.0 0z" fill-rule="evenodd"/><path fill="#fff2cc" d="m616.1376 503.27057l24.0 0l0 24.062988l-24.0 0z" fill-rule="evenodd"/><path stroke="#000000" stroke-width="1.0" stroke-linejoin="round" stroke-linecap="butt" d="m616.1376 503.27057l24.0 0l0 24.062988l-24.0 0z" fill-rule="evenodd"/><path fill="#fff2cc" d="m640.13837 503.27057l24.0 0l0 24.062988l-24.0 0z" fill-rule="evenodd"/><path stroke="#000000" stroke-width="1.0" stroke-linejoin="round" stroke-linecap="butt" d="m640.13837 503.27057l24.0 0l0 24.062988l-24.0 0z" fill-rule="evenodd"/><path fill="#fff2cc" d="m664.1391 503.27057l24.0 0l0 24.062988l-24.0 0z" fill-rule="evenodd"/><path stroke="#000000" stroke-width="1.0" stroke-linejoin="round" stroke-linecap="butt" d="m664.1391 503.27057l24.0 0l0 24.062988l-24.0 0z" fill-rule="evenodd"/><path fill="#fff2cc" d="m544.59076 527.32025l24.0 0l0 24.062988l-24.0 0z" fill-rule="evenodd"/><path stroke="#000000" stroke-width="1.0" stroke-linejoin="round" stroke-linecap="butt" d="m544.59076 527.32025l24.0 0l0 24.062988l-24.0 0z" fill-rule="evenodd"/><path fill="#fff2cc" d="m568.59155 527.32025l24.0 0l0 24.062988l-24.0 0z" fill-rule="evenodd"/><path stroke="#000000" stroke-width="1.0" stroke-linejoin="round" stroke-linecap="butt" d="m568.59155 527.32025l24.0 0l0 24.062988l-24.0 0z" fill-rule="evenodd"/><path fill="#fff2cc" d="m592.1368 527.32025l24.0 0l0 24.062988l-24.0 0z" fill-rule="evenodd"/><path stroke="#000000" stroke-width="1.0" stroke-linejoin="round" stroke-linecap="butt" d="m592.1368 527.32025l24.0 0l0 24.062988l-24.0 0z" fill-rule="evenodd"/><path fill="#fff2cc" d="m616.1376 527.32025l24.0 0l0 24.062988l-24.0 0z" fill-rule="evenodd"/><path stroke="#000000" stroke-width="1.0" stroke-linejoin="round" stroke-linecap="butt" d="m616.1376 527.32025l24.0 0l0 24.062988l-24.0 0z" fill-rule="evenodd"/><path fill="#fff2cc" d="m640.13837 527.32025l24.0 0l0 24.062988l-24.0 0z" fill-rule="evenodd"/><path stroke="#000000" stroke-width="1.0" stroke-linejoin="round" stroke-linecap="butt" d="m640.13837 527.32025l24.0 0l0 24.062988l-24.0 0z" fill-rule="evenodd"/><path fill="#fff2cc" d="m664.1391 527.32025l24.0 0l0 24.062988l-24.0 0z" fill-rule="evenodd"/><path stroke="#000000" stroke-width="1.0" stroke-linejoin="round" stroke-linecap="butt" d="m664.1391 527.32025l24.0 0l0 24.062988l-24.0 0z" fill-rule="evenodd"/><path fill="#fff2cc" d="m544.59076 551.0709l24.0 0l0 24.062988l-24.0 0z" fill-rule="evenodd"/><path stroke="#000000" stroke-width="1.0" stroke-linejoin="round" stroke-linecap="butt" d="m544.59076 551.0709l24.0 0l0 24.062988l-24.0 0z" fill-rule="evenodd"/><path fill="#fff2cc" d="m568.59155 551.0709l24.0 0l0 24.062988l-24.0 0z" fill-rule="evenodd"/><path stroke="#000000" stroke-width="1.0" stroke-linejoin="round" stroke-linecap="butt" d="m568.59155 551.0709l24.0 0l0 24.062988l-24.0 0z" fill-rule="evenodd"/><path fill="#fff2cc" d="m592.1368 551.0709l24.0 0l0 24.062988l-24.0 0z" fill-rule="evenodd"/><path stroke="#000000" stroke-width="1.0" stroke-linejoin="round" stroke-linecap="butt" d="m592.1368 551.0709l24.0 0l0 24.062988l-24.0 0z" fill-rule="evenodd"/><path fill="#fff2cc" d="m616.1376 551.0709l24.0 0l0 24.062988l-24.0 0z" fill-rule="evenodd"/><path stroke="#000000" stroke-width="1.0" stroke-linejoin="round" stroke-linecap="butt" d="m616.1376 551.0709l24.0 0l0 24.062988l-24.0 0z" fill-rule="evenodd"/><path fill="#fff2cc" d="m640.13837 551.0709l24.0 0l0 24.062988l-24.0 0z" fill-rule="evenodd"/><path stroke="#000000" stroke-width="1.0" stroke-linejoin="round" stroke-linecap="butt" d="m640.13837 551.0709l24.0 0l0 24.062988l-24.0 0z" fill-rule="evenodd"/><path fill="#fff2cc" d="m664.1391 551.0709l24.0 0l0 24.062988l-24.0 0z" fill-rule="evenodd"/><path stroke="#000000" stroke-width="1.0" stroke-linejoin="round" stroke-linecap="butt" d="m664.1391 551.0709l24.0 0l0 24.062988l-24.0 0z" fill-rule="evenodd"/><path fill="#fff2cc" d="m544.59076 575.12067l24.0 0l0 24.062988l-24.0 0z" fill-rule="evenodd"/><path stroke="#000000" stroke-width="1.0" stroke-linejoin="round" stroke-linecap="butt" d="m544.59076 575.12067l24.0 0l0 24.062988l-24.0 0z" fill-rule="evenodd"/><path fill="#fff2cc" d="m568.59155 575.12067l24.0 0l0 24.062988l-24.0 0z" fill-rule="evenodd"/><path stroke="#000000" stroke-width="1.0" stroke-linejoin="round" stroke-linecap="butt" d="m568.59155 575.12067l24.0 0l0 24.062988l-24.0 0z" fill-rule="evenodd"/><path fill="#fff2cc" d="m592.1368 575.12067l24.0 0l0 24.062988l-24.0 0z" fill-rule="evenodd"/><path stroke="#000000" stroke-width="1.0" stroke-linejoin="round" stroke-linecap="butt" d="m592.1368 575.12067l24.0 0l0 24.062988l-24.0 0z" fill-rule="evenodd"/><path fill="#fff2cc" d="m616.1376 575.12067l24.0 0l0 24.062988l-24.0 0z" fill-rule="evenodd"/><path stroke="#000000" stroke-width="1.0" stroke-linejoin="round" stroke-linecap="butt" d="m616.1376 575.12067l24.0 0l0 24.062988l-24.0 0z" fill-rule="evenodd"/><path fill="#fff2cc" d="m640.13837 575.12067l24.0 0l0 24.062988l-24.0 0z" fill-rule="evenodd"/><path stroke="#000000" stroke-width="1.0" stroke-linejoin="round" stroke-linecap="butt" d="m640.13837 575.12067l24.0 0l0 24.062988l-24.0 0z" fill-rule="evenodd"/><path fill="#fff2cc" d="m664.1391 575.12067l24.0 0l0 24.062988l-24.0 0z" fill-rule="evenodd"/><path stroke="#000000" stroke-width="1.0" stroke-linejoin="round" stroke-linecap="butt" d="m664.1391 575.12067l24.0 0l0 24.062988l-24.0 0z" fill-rule="evenodd"/><path fill="#fff2cc" d="m544.59076 598.8713l24.0 0l0 24.062988l-24.0 0z" fill-rule="evenodd"/><path stroke="#000000" stroke-width="1.0" stroke-linejoin="round" stroke-linecap="butt" d="m544.59076 598.8713l24.0 0l0 24.062988l-24.0 0z" fill-rule="evenodd"/><path fill="#fff2cc" d="m568.59155 598.8713l24.0 0l0 24.062988l-24.0 0z" fill-rule="evenodd"/><path stroke="#000000" stroke-width="1.0" stroke-linejoin="round" stroke-linecap="butt" d="m568.59155 598.8713l24.0 0l0 24.062988l-24.0 0z" fill-rule="evenodd"/><path fill="#ff0000" d="m592.1368 598.8713l24.0 0l0 24.062988l-24.0 0z" fill-rule="evenodd"/><path stroke="#000000" stroke-width="1.0" stroke-linejoin="round" stroke-linecap="butt" d="m592.1368 598.8713l24.0 0l0 24.062988l-24.0 0z" fill-rule="evenodd"/><path fill="#fff2cc" d="m616.1376 598.8713l24.0 0l0 24.062988l-24.0 0z" fill-rule="evenodd"/><path stroke="#000000" stroke-width="1.0" stroke-linejoin="round" stroke-linecap="butt" d="m616.1376 598.8713l24.0 0l0 24.062988l-24.0 0z" fill-rule="evenodd"/><path fill="#fff2cc" d="m640.13837 598.8713l24.0 0l0 24.062988l-24.0 0z" fill-rule="evenodd"/><path stroke="#000000" stroke-width="1.0" stroke-linejoin="round" stroke-linecap="butt" d="m640.13837 598.8713l24.0 0l0 24.062988l-24.0 0z" fill-rule="evenodd"/><path fill="#fff2cc" d="m664.1391 598.8713l24.0 0l0 24.062988l-24.0 0z" fill-rule="evenodd"/><path stroke="#000000" stroke-width="1.0" stroke-linejoin="round" stroke-linecap="butt" d="m664.1391 598.8713l24.0 0l0 24.062988l-24.0 0z" fill-rule="evenodd"/><path fill="#fff2cc" d="m544.59076 622.921l24.0 0l0 24.062988l-24.0 0z" fill-rule="evenodd"/><path stroke="#000000" stroke-width="1.0" stroke-linejoin="round" stroke-linecap="butt" d="m544.59076 622.921l24.0 0l0 24.062988l-24.0 0z" fill-rule="evenodd"/><path fill="#fff2cc" d="m568.59155 622.921l24.0 0l0 24.062988l-24.0 0z" fill-rule="evenodd"/><path stroke="#000000" stroke-width="1.0" stroke-linejoin="round" stroke-linecap="butt" d="m568.59155 622.921l24.0 0l0 24.062988l-24.0 0z" fill-rule="evenodd"/><path fill="#fff2cc" d="m592.1368 622.921l24.0 0l0 24.062988l-24.0 0z" fill-rule="evenodd"/><path stroke="#000000" stroke-width="1.0" stroke-linejoin="round" stroke-linecap="butt" d="m592.1368 622.921l24.0 0l0 24.062988l-24.0 0z" fill-rule="evenodd"/><path fill="#fff2cc" d="m616.1376 622.921l24.0 0l0 24.062988l-24.0 0z" fill-rule="evenodd"/><path stroke="#000000" stroke-width="1.0" stroke-linejoin="round" stroke-linecap="butt" d="m616.1376 622.921l24.0 0l0 24.062988l-24.0 0z" fill-rule="evenodd"/><path fill="#fff2cc" d="m640.13837 622.921l24.0 0l0 24.062988l-24.0 0z" fill-rule="evenodd"/><path stroke="#000000" stroke-width="1.0" stroke-linejoin="round" stroke-linecap="butt" d="m640.13837 622.921l24.0 0l0 24.062988l-24.0 0z" fill-rule="evenodd"/><path fill="#fff2cc" d="m664.1391 622.921l24.0 0l0 24.062988l-24.0 0z" fill-rule="evenodd"/><path stroke="#000000" stroke-width="1.0" stroke-linejoin="round" stroke-linecap="butt" d="m664.1391 622.921l24.0 0l0 24.062988l-24.0 0z" fill-rule="evenodd"/><path fill="#cfe2f3" d="m35.912148 575.12067l24.0 0l0 24.062988l-24.0 0z" fill-rule="evenodd"/><path stroke="#000000" stroke-width="1.0" stroke-linejoin="round" stroke-linecap="butt" d="m35.912148 575.12067l24.0 0l0 24.062988l-24.0 0z" fill-rule="evenodd"/><path fill="#cfe2f3" d="m35.912148 598.8713l24.0 0l0 24.062988l-24.0 0z" fill-rule="evenodd"/><path stroke="#000000" stroke-width="1.0" stroke-linejoin="round" stroke-linecap="butt" d="m35.912148 598.8713l24.0 0l0 24.062988l-24.0 0z" fill-rule="evenodd"/><path fill="#cfe2f3" d="m35.912148 622.921l24.0 0l0 24.062988l-24.0 0z" fill-rule="evenodd"/><path stroke="#000000" stroke-width="1.0" stroke-linejoin="round" stroke-linecap="butt" d="m35.912148 622.921l24.0 0l0 24.062988l-24.0 0z" fill-rule="evenodd"/><path fill="#cfe2f3" d="m244.97646 537.1416l23.999985 0l0 24.062988l-23.999985 0z" fill-rule="evenodd"/><path stroke="#ff0000" stroke-width="1.0" stroke-linejoin="round" stroke-linecap="butt" d="m244.97646 537.1416l23.999985 0l0 24.062988l-23.999985 0z" fill-rule="evenodd"/><path fill="#cfe2f3" d="m107.45895 575.12067l24.000008 0l0 24.062988l-24.000008 0z" fill-rule="evenodd"/><path stroke="#ff0000" stroke-width="1.0" stroke-linejoin="round" stroke-linecap="butt" d="m107.45895 575.12067l24.000008 0l0 24.062988l-24.000008 0z" fill-rule="evenodd"/><path fill="#cfe2f3" d="m107.45895 598.8713l24.000008 0l0 24.062988l-24.000008 0z" fill-rule="evenodd"/><path stroke="#ff0000" stroke-width="1.0" stroke-linejoin="round" stroke-linecap="butt" d="m107.45895 598.8713l24.000008 0l0 24.062988l-24.000008 0z" fill-rule="evenodd"/><path fill="#cfe2f3" d="m107.45895 622.921l24.000008 0l0 24.062988l-24.000008 0z" fill-rule="evenodd"/><path stroke="#ff0000" stroke-width="1.0" stroke-linejoin="round" stroke-linecap="butt" d="m107.45895 622.921l24.000008 0l0 24.062988l-24.000008 0z" fill-rule="evenodd"/><path fill="#cfe2f3" d="m59.912918 575.12067l24.0 0l0 24.062988l-24.0 0z" fill-rule="evenodd"/><path stroke="#ff0000" stroke-width="1.0" stroke-linejoin="round" stroke-linecap="butt" d="m59.912918 575.12067l24.0 0l0 24.062988l-24.0 0z" fill-rule="evenodd"/><path fill="#cfe2f3" d="m83.458176 575.12067l24.0 0l0 24.062988l-24.0 0z" fill-rule="evenodd"/><path stroke="#ff0000" stroke-width="1.0" stroke-linejoin="round" stroke-linecap="butt" d="m83.458176 575.12067l24.0 0l0 24.062988l-24.0 0z" fill-rule="evenodd"/><path fill="#cfe2f3" d="m59.912918 598.8713l24.0 0l0 24.062988l-24.0 0z" fill-rule="evenodd"/><path stroke="#ff0000" stroke-width="1.0" stroke-linejoin="round" stroke-linecap="butt" d="m59.912918 598.8713l24.0 0l0 24.062988l-24.0 0z" fill-rule="evenodd"/><path fill="#cfe2f3" d="m83.458176 598.8713l24.0 0l0 24.062988l-24.0 0z" fill-rule="evenodd"/><path stroke="#ff0000" stroke-width="1.0" stroke-linejoin="round" stroke-linecap="butt" d="m83.458176 598.8713l24.0 0l0 24.062988l-24.0 0z" fill-rule="evenodd"/><path fill="#cfe2f3" d="m59.912918 622.921l24.0 0l0 24.062988l-24.0 0z" fill-rule="evenodd"/><path stroke="#ff0000" stroke-width="1.0" stroke-linejoin="round" stroke-linecap="butt" d="m59.912918 622.921l24.0 0l0 24.062988l-24.0 0z" fill-rule="evenodd"/><path fill="#cfe2f3" d="m83.458176 622.921l24.0 0l0 24.062988l-24.0 0z" fill-rule="evenodd"/><path stroke="#ff0000" stroke-width="1.0" stroke-linejoin="round" stroke-linecap="butt" d="m83.458176 622.921l24.0 0l0 24.062988l-24.0 0z" fill-rule="evenodd"/><path fill="#cfe2f3" d="m268.97723 537.1416l24.0 0l0 24.062988l-24.0 0z" fill-rule="evenodd"/><path stroke="#ff0000" stroke-width="1.0" stroke-linejoin="round" stroke-linecap="butt" d="m268.97723 537.1416l24.0 0l0 24.062988l-24.0 0z" fill-rule="evenodd"/><path fill="#cfe2f3" d="m292.5225 537.1416l24.0 0l0 24.062988l-24.0 0z" fill-rule="evenodd"/><path stroke="#ff0000" stroke-width="1.0" stroke-linejoin="round" stroke-linecap="butt" d="m292.5225 537.1416l24.0 0l0 24.062988l-24.0 0z" fill-rule="evenodd"/><path fill="#cfe2f3" d="m244.97646 560.8923l23.999985 0l0 24.062988l-23.999985 0z" fill-rule="evenodd"/><path stroke="#ff0000" stroke-width="1.0" stroke-linejoin="round" stroke-linecap="butt" d="m244.97646 560.8923l23.999985 0l0 24.062988l-23.999985 0z" fill-rule="evenodd"/><path fill="#cfe2f3" d="m268.97723 560.8923l24.0 0l0 24.062988l-24.0 0z" fill-rule="evenodd"/><path stroke="#ff0000" stroke-width="1.0" stroke-linejoin="round" stroke-linecap="butt" d="m268.97723 560.8923l24.0 0l0 24.062988l-24.0 0z" fill-rule="evenodd"/><path fill="#cfe2f3" d="m292.5225 560.8923l24.0 0l0 24.062988l-24.0 0z" fill-rule="evenodd"/><path stroke="#ff0000" stroke-width="1.0" stroke-linejoin="round" stroke-linecap="butt" d="m292.5225 560.8923l24.0 0l0 24.062988l-24.0 0z" fill-rule="evenodd"/><path fill="#cfe2f3" d="m244.97646 584.942l23.999985 0l0 24.062988l-23.999985 0z" fill-rule="evenodd"/><path stroke="#ff0000" stroke-width="1.0" stroke-linejoin="round" stroke-linecap="butt" d="m244.97646 584.942l23.999985 0l0 24.062988l-23.999985 0z" fill-rule="evenodd"/><path fill="#cfe2f3" d="m268.97723 584.942l24.0 0l0 24.062988l-24.0 0z" fill-rule="evenodd"/><path stroke="#ff0000" stroke-width="1.0" stroke-linejoin="round" stroke-linecap="butt" d="m268.97723 584.942l24.0 0l0 24.062988l-24.0 0z" fill-rule="evenodd"/><path fill="#cfe2f3" d="m292.5225 584.942l24.0 0l0 24.062988l-24.0 0z" fill-rule="evenodd"/><path stroke="#ff0000" stroke-width="1.0" stroke-linejoin="round" stroke-linecap="butt" d="m292.5225 584.942l24.0 0l0 24.062988l-24.0 0z" fill-rule="evenodd"/><path fill="#000000" fill-opacity="0.0" d="m402.68307 -5.6032043l81.921265 0l0 53.574802l-81.921265 0z" fill-rule="evenodd"/><path fill="#000000" d="m427.99557 49.236794l-1.640625 -26.718752l3.625 0l0.609375 13.218752q0.0625 0.9375 0.1875 5.140625q0.03125 1.15625 0.03125 1.640625q0 0.296875 -0.015625 1.796875q2.234375 -4.5625 3.21875 -6.421875l8.125 -15.375002l3.671875 0l0.90625 15.625002q0.140625 2.671875 0.1875 6.453125q0.328125 -0.9375 1.171875 -2.78125q1.328125 -2.96875 1.96875 -4.25l7.625 -15.046877l3.640625 0l-13.59375 26.718752l-3.828125 0l-0.890625 -16.1875q-0.140625 -2.078127 -0.203125 -5.093752q-1.109375 2.53125 -1.859375 3.921875l-9.265625 17.359377l-3.671875 0z" fill-rule="nonzero"/><path fill="#000000" fill-opacity="0.0" d="m402.68307 228.9654l81.921265 0l0 53.5748l-81.921265 0z" fill-rule="evenodd"/><path fill="#000000" d="m427.99557 283.8054l-1.640625 -26.71875l3.625 0l0.609375 13.21875q0.0625 0.9375 0.1875 5.140625q0.03125 1.15625 0.03125 1.640625q0 0.296875 -0.015625 1.796875q2.234375 -4.5625 3.21875 -6.421875l8.125 -15.375l3.671875 0l0.90625 15.625q0.140625 2.671875 0.1875 6.453125q0.328125 -0.9375 1.171875 -2.78125q1.328125 -2.96875 1.96875 -4.25l7.625 -15.046875l3.640625 0l-13.59375 26.71875l-3.828125 0l-0.890625 -16.1875q-0.140625 -2.078125 -0.203125 -5.09375q-1.109375 2.53125 -1.859375 3.921875l-9.265625 17.359375l-3.671875 0z" fill-rule="nonzero"/><path fill="#000000" fill-opacity="0.0" d="m402.56265 473.74356l81.921265 0l0 53.5748l-81.921265 0z" fill-rule="evenodd"/><path fill="#000000" d="m427.87515 528.58356l-1.640625 -26.71875l3.625 0l0.609375 13.21875q0.0625 0.9375 0.1875 5.140625q0.03125 1.15625 0.03125 1.640625q0 0.296875 -0.015625 1.796875q2.234375 -4.5625 3.21875 -6.421875l8.125 -15.375l3.671875 0l0.90625 15.625q0.140625 2.671875 0.1875 6.453125q0.328125 -0.9375 1.171875 -2.78125q1.328125 -2.96875 1.96875 -4.25l7.625 -15.046875l3.640625 0l-13.59375 26.71875l-3.828125 0l-0.890625 -16.1875q-0.140625 -2.078125 -0.203125 -5.09375q-1.109375 2.53125 -1.859375 3.921875l-9.265625 17.359375l-3.671875 0z" fill-rule="nonzero"/><path fill="#000000" fill-opacity="0.0" d="m346.4064 91.16504l0 0c0 -8.04509 6.514801 -14.566933 14.551178 -14.566933l0 0c3.8592224 0 7.560364 1.534729 10.289246 4.266556c2.7288818 2.7318344 4.2619324 6.436989 4.2619324 10.300377l0 0c0 8.04509 -6.5147705 14.566925 -14.551178 14.566925l0 0c-8.036377 0 -14.551178 -6.5218353 -14.551178 -14.566925z" fill-rule="evenodd"/><path stroke="#000000" stroke-width="1.0" stroke-linejoin="round" stroke-linecap="butt" d="m346.4064 91.16504l0 0c0 -8.04509 6.514801 -14.566933 14.551178 -14.566933l0 0c3.8592224 0 7.560364 1.534729 10.289246 4.266556c2.7288818 2.7318344 4.2619324 6.436989 4.2619324 10.300377l0 0c0 8.04509 -6.5147705 14.566925 -14.551178 14.566925l0 0c-8.036377 0 -14.551178 -6.5218353 -14.551178 -14.566925z" fill-rule="evenodd"/><path fill="#000000" d="m357.87274 91.17444l0 0c0 -1.704689 1.3748779 -3.086609 3.0708618 -3.086609l0 0c0.8144531 0 1.5955505 0.3251953 2.1714478 0.9040451c0.5758972 0.5788498 0.89941406 1.363945 0.89941406 2.1825638l0 0c0 1.704689 -1.3748474 3.0866165 -3.0708618 3.0866165l0 0c-1.6959839 0 -3.0708618 -1.3819275 -3.0708618 -3.0866165z" fill-rule="evenodd"/><path stroke="#000000" stroke-width="1.0" stroke-linejoin="round" stroke-linecap="butt" d="m357.87274 91.17444l0 0c0 -1.704689 1.3748779 -3.086609 3.0708618 -3.086609l0 0c0.8144531 0 1.5955505 0.3251953 2.1714478 0.9040451c0.5758972 0.5788498 0.89941406 1.363945 0.89941406 2.1825638l0 0c0 1.704689 -1.3748474 3.0866165 -3.0708618 3.0866165l0 0c-1.6959839 0 -3.0708618 -1.3819275 -3.0708618 -3.0866165z" fill-rule="evenodd"/><path fill="#000000" fill-opacity="0.0" d="m347.59753 328.13126l0 0c0 -8.045105 6.514801 -14.566925 14.551178 -14.566925l0 0c3.8592224 0 7.560364 1.534729 10.289246 4.2665405c2.7288818 2.731842 4.261963 6.4370117 4.261963 10.3003845l0 0c0 8.045105 -6.514801 14.566925 -14.5512085 14.566925l0 0c-8.036377 0 -14.551178 -6.52182 -14.551178 -14.566925z" fill-rule="evenodd"/><path stroke="#000000" stroke-width="1.0" stroke-linejoin="round" stroke-linecap="butt" d="m347.59753 328.13126l0 0c0 -8.045105 6.514801 -14.566925 14.551178 -14.566925l0 0c3.8592224 0 7.560364 1.534729 10.289246 4.2665405c2.7288818 2.731842 4.261963 6.4370117 4.261963 10.3003845l0 0c0 8.045105 -6.514801 14.566925 -14.5512085 14.566925l0 0c-8.036377 0 -14.551178 -6.52182 -14.551178 -14.566925z" fill-rule="evenodd"/><path fill="#000000" d="m359.06387 328.14066l0 0c0 -1.7046814 1.3748779 -3.086609 3.0708618 -3.086609l0 0c0.8144531 0 1.5955505 0.3251953 2.1714478 0.90405273c0.5758972 0.5788574 0.8994446 1.3639526 0.8994446 2.1825562l0 0c0 1.7046814 -1.3748779 3.086609 -3.0708923 3.086609l0 0c-1.6959839 0 -3.0708618 -1.3819275 -3.0708618 -3.086609z" fill-rule="evenodd"/><path stroke="#000000" stroke-width="1.0" stroke-linejoin="round" stroke-linecap="butt" d="m359.06387 328.14066l0 0c0 -1.7046814 1.3748779 -3.086609 3.0708618 -3.086609l0 0c0.8144531 0 1.5955505 0.3251953 2.1714478 0.90405273c0.5758972 0.5788574 0.8994446 1.3639526 0.8994446 2.1825562l0 0c0 1.7046814 -1.3748779 3.086609 -3.0708923 3.086609l0 0c-1.6959839 0 -3.0708618 -1.3819275 -3.0708618 -3.086609z" fill-rule="evenodd"/><path fill="#000000" fill-opacity="0.0" d="m347.47974 572.7625l0 0c0 -8.045044 6.514801 -14.566895 14.551178 -14.566895l0 0c3.8592224 0 7.560364 1.534729 10.289246 4.2665405c2.7288818 2.7318115 4.2619324 6.4370117 4.2619324 10.300354l0 0c0 8.045105 -6.5147705 14.566956 -14.551178 14.566956l0 0c-8.036377 0 -14.551178 -6.5218506 -14.551178 -14.566956z" fill-rule="evenodd"/><path stroke="#000000" stroke-width="1.0" stroke-linejoin="round" stroke-linecap="butt" d="m347.47974 572.7625l0 0c0 -8.045044 6.514801 -14.566895 14.551178 -14.566895l0 0c3.8592224 0 7.560364 1.534729 10.289246 4.2665405c2.7288818 2.7318115 4.2619324 6.4370117 4.2619324 10.300354l0 0c0 8.045105 -6.5147705 14.566956 -14.551178 14.566956l0 0c-8.036377 0 -14.551178 -6.5218506 -14.551178 -14.566956z" fill-rule="evenodd"/><path fill="#000000" d="m358.94608 572.7719l0 0c0 -1.7046509 1.3748779 -3.086609 3.0708618 -3.086609l0 0c0.8144531 0 1.5955505 0.3251953 2.1714478 0.90405273c0.5758972 0.5788574 0.89941406 1.3639526 0.89941406 2.1825562l0 0c0 1.7047119 -1.3748779 3.08667 -3.0708618 3.08667l0 0c-1.6959839 0 -3.0708618 -1.381958 -3.0708618 -3.08667z" fill-rule="evenodd"/><path stroke="#000000" stroke-width="1.0" stroke-linejoin="round" stroke-linecap="butt" d="m358.94608 572.7719l0 0c0 -1.7046509 1.3748779 -3.086609 3.0708618 -3.086609l0 0c0.8144531 0 1.5955505 0.3251953 2.1714478 0.90405273c0.5758972 0.5788574 0.89941406 1.3639526 0.89941406 2.1825562l0 0c0 1.7047119 -1.3748779 3.08667 -3.0708618 3.08667l0 0c-1.6959839 0 -3.0708618 -1.381958 -3.0708618 -3.08667z" fill-rule="evenodd"/></g></svg>