<svg version="1.1" viewBox="0.0 0.0 130.04724409448818 128.4750656167979" fill="none" stroke="none" stroke-linecap="square" stroke-miterlimit="10" xmlns:xlink="http://www.w3.org/1999/xlink" xmlns="http://www.w3.org/2000/svg"><clipPath id="p.0"><path d="m0 0l130.04724 0l0 128.47507l-130.04724 0l0 -128.47507z" clip-rule="nonzero"/></clipPath><g clip-path="url(#p.0)"><path fill="#000000" fill-opacity="0.0" d="m0 0l130.04724 0l0 128.47507l-130.04724 0z" fill-rule="evenodd"/><defs><linearGradient id="p.1" gradientUnits="userSpaceOnUse" gradientTransform="matrix(11.432809566428578 0.0 0.0 11.432809566428578 0.0 0.0)" spreadMethod="pad" x1="1.4981874348609572E-10" y1="-4.138650598305906E-5" x2="-4.138650598305906E-5" y2="11.432768179847685"><stop offset="0.0" stop-color="#dfe9fb"/><stop offset="1.0" stop-color="#6e9be7"/></linearGradient></defs><path fill="url(#p.1)" d="m0 0l130.70866 0l0 130.70866l-130.70866 0z" fill-rule="evenodd"/><path fill="#000000" d="m36.224342 84.55433l-2.609375 -9.0625l-13.125 0l-2.625 9.0625l-8.15625 0l12.375 -38.21875l9.859375 0l12.421875 38.21875l-8.140625 0zm-4.484375 -15.828125l-2.453125 -8.34375q-0.15625 -0.46875 -0.46875 -1.53125q-0.3125 -1.0625 -0.671875 -2.34375q-0.34375 -1.296875 -0.65625 -2.59375q-0.3125 -1.3125 -0.4375 -2.21875q-0.109375 0.578125 -0.28125 1.359375q-0.15625 0.78125 -0.390625 1.65625q-0.21875 0.859375 -0.453125 1.75q-0.234375 0.890625 -0.4375 1.671875q-0.203125 0.765625 -0.375 1.375q-0.171875 0.59375 -0.25 0.875l-2.421875 8.34375l9.296875 0zm38.28308 5.25q0 2.5625 -0.875 4.609375q-0.875 2.03125 -2.5625 3.484375q-1.671875 1.4375 -4.109375 2.21875q-2.4375 0.78125 -5.578125 0.78125q-2.765625 0 -5.328125 -0.5625q-2.5625 -0.578125 -4.75 -1.71875l0 -7.5q1.25 0.59375 2.515625 1.15625q1.28125 0.5625 2.59375 1.0q1.3125 0.4375 2.625 0.703125q1.328125 0.265625 2.625 0.265625q1.328125 0 2.28125 -0.296875q0.953125 -0.3125 1.53125 -0.84375q0.59375 -0.53125 0.859375 -1.265625q0.28125 -0.75 0.28125 -1.640625q0 -1.0625 -0.46875 -1.875q-0.453125 -0.828125 -1.28125 -1.546875q-0.8125 -0.71875 -1.96875 -1.390625q-1.15625 -0.671875 -2.59375 -1.4375q-1.1875 -0.625 -2.671875 -1.5q-1.484375 -0.890625 -2.8125 -2.203125q-1.3125 -1.3125 -2.203125 -3.171875q-0.875 -1.875 -0.875 -4.46875q0 -2.546875 0.84375 -4.5625q0.84375 -2.03125 2.40625 -3.421875q1.5625 -1.390625 3.78125 -2.109375q2.234375 -0.734375 5.0 -0.734375q1.375 0 2.6875 0.1875q1.328125 0.171875 2.609375 0.515625q1.296875 0.328125 2.59375 0.828125q1.296875 0.5 2.6875 1.140625l-2.609375 6.28125q-1.171875 -0.546875 -2.1875 -0.953125q-1.015625 -0.421875 -1.984375 -0.703125q-0.953125 -0.296875 -1.890625 -0.4375q-0.921875 -0.140625 -1.859375 -0.140625q-2.03125 0 -3.109375 1.078125q-1.078125 1.078125 -1.078125 2.875q0 0.96875 0.328125 1.703125q0.328125 0.734375 1.03125 1.390625q0.71875 0.65625 1.84375 1.328125q1.140625 0.671875 2.765625 1.53125q1.953125 1.046875 3.59375 2.125q1.640625 1.078125 2.8125 2.40625q1.1875 1.3125 1.84375 2.984375q0.65625 1.65625 0.65625 3.890625zm22.393112 10.578125l-8.359375 -29.859375l-0.234375 0q0.15625 2.390625 0.25 4.625q0.0625 0.96875 0.09375 1.984375q0.046875 1.015625 0.078125 2.0q0.046875 0.984375 0.046875 1.90625q0.015625 0.90625 0.015625 1.640625l0 17.703125l-7.203125 0l0 -38.0625l10.984375 0l8.234375 29.109375l0.15625 0l8.734375 -29.109375l11.0 0l0 38.0625l-7.53125 0l0 -18.015625q0 -0.6875 0.015625 -1.546875q0.015625 -0.859375 0.03125 -1.8125q0.03125 -0.96875 0.0625 -1.953125q0.046875 -1.0 0.078125 -1.9375q0.09375 -2.171875 0.171875 -4.546875l-0.203125 0l-9.015625 29.8125l-7.40625 0z" fill-rule="nonzero"/></g></svg>